<svg width="3644" height="2013" viewBox="0 0 3644 2013" fill="none" xmlns="http://www.w3.org/2000/svg">
<rect width="3644" height="2013" fill="white"/>
<circle cx="634" cy="676" r="75" fill="#FF6D6D"/>
<path d="M625.764 694V690.804L637.767 677.665C639.176 676.126 640.336 674.788 641.247 673.652C642.159 672.504 642.833 671.427 643.271 670.42C643.721 669.402 643.946 668.337 643.946 667.224C643.946 665.946 643.638 664.839 643.023 663.904C642.419 662.969 641.59 662.247 640.537 661.738C639.483 661.229 638.3 660.974 636.986 660.974C635.589 660.974 634.37 661.264 633.328 661.844C632.298 662.413 631.499 663.212 630.931 664.241C630.375 665.271 630.097 666.479 630.097 667.864H625.906C625.906 665.733 626.397 663.863 627.38 662.253C628.362 660.643 629.7 659.388 631.393 658.489C633.097 657.589 635.009 657.139 637.128 657.139C639.259 657.139 641.147 657.589 642.792 658.489C644.437 659.388 645.728 660.602 646.663 662.129C647.598 663.656 648.065 665.354 648.065 667.224C648.065 668.562 647.823 669.87 647.337 671.148C646.864 672.415 646.035 673.83 644.852 675.392C643.68 676.943 642.052 678.837 639.969 681.074L631.801 689.81V690.094H648.705V694H625.764Z" fill="black"/>
<circle cx="220" cy="266" r="75" fill="#1ECFDA"/>
<path d="M224.548 247.636V284H220.145V252.253H219.932L211.054 258.148V253.673L220.145 247.636H224.548Z" fill="black"/>
<circle cx="220" cy="676" r="75" fill="#FAE950"/>
<path d="M220.051 694.497C217.707 694.497 215.618 694.095 213.783 693.29C211.96 692.485 210.51 691.366 209.433 689.934C208.368 688.49 207.788 686.815 207.693 684.909H212.168C212.262 686.081 212.665 687.093 213.375 687.945C214.085 688.786 215.014 689.437 216.163 689.898C217.311 690.36 218.583 690.591 219.98 690.591C221.543 690.591 222.928 690.319 224.135 689.774C225.342 689.23 226.289 688.472 226.976 687.501C227.662 686.531 228.006 685.406 228.006 684.128C228.006 682.79 227.674 681.612 227.011 680.594C226.348 679.565 225.378 678.76 224.099 678.18C222.821 677.6 221.259 677.31 219.412 677.31H216.5V673.403H219.412C220.856 673.403 222.123 673.143 223.212 672.622C224.313 672.101 225.171 671.367 225.786 670.42C226.414 669.473 226.727 668.361 226.727 667.082C226.727 665.851 226.455 664.78 225.911 663.869C225.366 662.957 224.597 662.247 223.602 661.738C222.62 661.229 221.46 660.974 220.122 660.974C218.867 660.974 217.684 661.205 216.571 661.667C215.47 662.117 214.571 662.774 213.872 663.638C213.174 664.49 212.795 665.52 212.736 666.727H208.474C208.545 664.821 209.12 663.152 210.197 661.72C211.274 660.276 212.683 659.152 214.423 658.347C216.174 657.542 218.098 657.139 220.193 657.139C222.442 657.139 224.372 657.595 225.982 658.506C227.591 659.406 228.828 660.596 229.692 662.075C230.557 663.555 230.989 665.153 230.989 666.869C230.989 668.917 230.45 670.663 229.373 672.107C228.308 673.551 226.857 674.552 225.023 675.108V675.392C227.319 675.771 229.112 676.747 230.403 678.322C231.693 679.884 232.338 681.82 232.338 684.128C232.338 686.105 231.799 687.88 230.722 689.455C229.657 691.017 228.201 692.248 226.354 693.148C224.508 694.047 222.407 694.497 220.051 694.497Z" fill="black"/>
<circle cx="1402" cy="437" r="75" fill="#CF68E9"/>
<path d="M1387.91 447.543V443.92L1403.89 418.636H1406.52V424.247H1404.74L1392.67 443.352V443.636H1414.19V447.543H1387.91ZM1405.03 455V446.442V444.755V418.636H1409.22V455H1405.03Z" fill="black"/>
<circle cx="2756" cy="271" r="75" fill="#FBAD76"/>
<path d="M2745.55 253.636V290H2741.14V258.253H2740.93L2732.05 264.148V259.673L2741.14 253.636H2745.55ZM2768.08 290.497C2766.59 290.473 2765.1 290.189 2763.61 289.645C2762.11 289.1 2760.75 288.183 2759.52 286.893C2758.29 285.591 2757.3 283.833 2756.56 281.619C2755.81 279.394 2755.44 276.6 2755.44 273.239C2755.44 270.019 2755.74 267.166 2756.34 264.68C2756.95 262.183 2757.82 260.082 2758.97 258.377C2760.12 256.661 2761.5 255.359 2763.13 254.471C2764.76 253.583 2766.6 253.139 2768.65 253.139C2770.68 253.139 2772.5 253.548 2774.08 254.364C2775.68 255.169 2776.98 256.294 2777.99 257.738C2778.99 259.182 2779.65 260.845 2779.94 262.727H2775.61C2775.21 261.094 2774.42 259.738 2773.26 258.661C2772.1 257.584 2770.57 257.045 2768.65 257.045C2765.83 257.045 2763.61 258.271 2761.99 260.721C2760.38 263.171 2759.57 266.61 2759.56 271.037H2759.84C2760.5 270.031 2761.29 269.173 2762.2 268.462C2763.13 267.74 2764.14 267.184 2765.26 266.793C2766.37 266.403 2767.55 266.207 2768.79 266.207C2770.87 266.207 2772.78 266.728 2774.51 267.77C2776.24 268.8 2777.62 270.226 2778.66 272.049C2779.7 273.86 2780.23 275.938 2780.23 278.281C2780.23 280.53 2779.72 282.59 2778.72 284.46C2777.71 286.319 2776.3 287.798 2774.47 288.899C2772.66 289.988 2770.53 290.521 2768.08 290.497ZM2768.08 286.591C2769.57 286.591 2770.91 286.218 2772.09 285.472C2773.29 284.727 2774.23 283.726 2774.92 282.472C2775.61 281.217 2775.96 279.82 2775.96 278.281C2775.96 276.778 2775.63 275.411 2774.95 274.18C2774.29 272.937 2773.37 271.948 2772.2 271.214C2771.04 270.481 2769.71 270.114 2768.22 270.114C2767.1 270.114 2766.05 270.339 2765.08 270.788C2764.11 271.226 2763.26 271.83 2762.52 272.599C2761.8 273.369 2761.23 274.251 2760.82 275.245C2760.4 276.228 2760.2 277.263 2760.2 278.352C2760.2 279.796 2760.53 281.146 2761.21 282.401C2761.9 283.655 2762.83 284.667 2764.01 285.437C2765.21 286.206 2766.57 286.591 2768.08 286.591Z" fill="black"/>
<circle cx="2610" cy="1739" r="75" fill="#CF68E9"/>
<path d="M2610.62 1757.5C2607.95 1757.5 2605.67 1756.77 2603.79 1755.31C2601.91 1753.85 2600.47 1751.72 2599.47 1748.94C2598.48 1746.15 2597.98 1742.77 2597.98 1738.82C2597.98 1734.89 2598.48 1731.53 2599.47 1728.75C2600.48 1725.96 2601.92 1723.83 2603.81 1722.36C2605.7 1720.88 2607.97 1720.14 2610.62 1720.14C2613.28 1720.14 2615.54 1720.88 2617.43 1722.36C2619.32 1723.83 2620.76 1725.96 2621.76 1728.75C2622.76 1731.53 2623.27 1734.89 2623.27 1738.82C2623.27 1742.77 2622.77 1746.15 2621.78 1748.94C2620.78 1751.72 2619.34 1753.85 2617.46 1755.31C2615.58 1756.77 2613.3 1757.5 2610.62 1757.5ZM2610.62 1753.59C2613.28 1753.59 2615.34 1752.31 2616.8 1749.76C2618.27 1747.2 2619.01 1743.55 2619.01 1738.82C2619.01 1735.67 2618.67 1732.99 2617.99 1730.77C2617.33 1728.56 2616.37 1726.87 2615.12 1725.71C2613.87 1724.55 2612.38 1723.97 2610.62 1723.97C2608 1723.97 2605.94 1725.27 2604.46 1727.86C2602.98 1730.44 2602.24 1734.1 2602.24 1738.82C2602.24 1741.97 2602.58 1744.64 2603.24 1746.84C2603.9 1749.05 2604.85 1750.72 2606.1 1751.87C2607.35 1753.02 2608.86 1753.59 2610.62 1753.59Z" fill="black"/>
<circle cx="3286" cy="1170" r="75" fill="#FAE950"/>
<path d="M3274.55 1151.64V1188H3270.14V1156.25H3269.93L3261.05 1162.15V1157.67L3270.14 1151.64H3274.55ZM3284.15 1180.54V1176.92L3300.13 1151.64H3302.76V1157.25H3300.99L3288.91 1176.35V1176.64H3310.43V1180.54H3284.15ZM3301.27 1188V1179.44V1177.75V1151.64H3305.46V1188H3301.27Z" fill="black"/>
<circle cx="3046" cy="707" r="75" fill="#CF68E9"/>
<path d="M3045.13 727.497C3043.04 727.497 3041.17 727.083 3039.5 726.254C3037.83 725.426 3036.49 724.289 3035.49 722.845C3034.48 721.401 3033.93 719.756 3033.84 717.909H3038.1C3038.26 719.554 3039.01 720.916 3040.33 721.993C3041.67 723.058 3043.27 723.591 3045.13 723.591C3046.62 723.591 3047.95 723.242 3049.11 722.543C3050.28 721.845 3051.19 720.886 3051.86 719.667C3052.53 718.436 3052.87 717.045 3052.87 715.494C3052.87 713.908 3052.52 712.494 3051.82 711.251C3051.14 709.996 3050.19 709.008 3048.98 708.286C3047.77 707.563 3046.39 707.196 3044.84 707.185C3043.73 707.173 3042.59 707.344 3041.42 707.7C3040.25 708.043 3039.28 708.487 3038.52 709.031L3034.4 708.534L3036.61 690.636H3055.5V694.543H3040.3L3039.02 705.267H3039.23C3039.98 704.675 3040.91 704.184 3042.04 703.793C3043.16 703.403 3044.33 703.207 3045.55 703.207C3047.78 703.207 3049.76 703.74 3051.5 704.805C3053.25 705.859 3054.63 707.303 3055.62 709.138C3056.63 710.973 3057.13 713.068 3057.13 715.423C3057.13 717.743 3056.61 719.815 3055.57 721.638C3054.54 723.449 3053.12 724.881 3051.31 725.935C3049.5 726.976 3047.44 727.497 3045.13 727.497Z" fill="black"/>
<circle cx="634" cy="266" r="75" fill="#FAE950"/>
<path d="M633.838 284.497C632.347 284.473 630.855 284.189 629.364 283.645C627.872 283.1 626.511 282.183 625.28 280.893C624.049 279.591 623.06 277.833 622.315 275.619C621.569 273.394 621.196 270.6 621.196 267.239C621.196 264.019 621.498 261.166 622.102 258.68C622.705 256.183 623.581 254.082 624.729 252.377C625.878 250.661 627.263 249.359 628.884 248.471C630.518 247.583 632.358 247.139 634.406 247.139C636.442 247.139 638.253 247.548 639.839 248.364C641.438 249.169 642.74 250.294 643.746 251.738C644.752 253.182 645.403 254.845 645.699 256.727H641.366C640.964 255.094 640.183 253.738 639.023 252.661C637.863 251.584 636.324 251.045 634.406 251.045C631.589 251.045 629.37 252.271 627.748 254.721C626.138 257.171 625.327 260.61 625.315 265.037H625.599C626.262 264.031 627.049 263.173 627.961 262.462C628.884 261.74 629.902 261.184 631.015 260.793C632.128 260.403 633.305 260.207 634.548 260.207C636.632 260.207 638.537 260.728 640.266 261.77C641.994 262.8 643.379 264.226 644.42 266.049C645.462 267.86 645.983 269.938 645.983 272.281C645.983 274.53 645.48 276.59 644.474 278.46C643.468 280.319 642.053 281.798 640.23 282.899C638.419 283.988 636.288 284.521 633.838 284.497ZM633.838 280.591C635.33 280.591 636.667 280.218 637.851 279.472C639.046 278.727 639.987 277.726 640.674 276.472C641.372 275.217 641.722 273.82 641.722 272.281C641.722 270.778 641.384 269.411 640.71 268.18C640.047 266.937 639.129 265.948 637.957 265.214C636.797 264.481 635.472 264.114 633.98 264.114C632.856 264.114 631.808 264.339 630.837 264.788C629.867 265.226 629.014 265.83 628.281 266.599C627.558 267.369 626.99 268.251 626.576 269.245C626.162 270.228 625.955 271.263 625.955 272.352C625.955 273.796 626.292 275.146 626.967 276.401C627.653 277.655 628.588 278.667 629.772 279.437C630.968 280.206 632.323 280.591 633.838 280.591Z" fill="black"/>
<circle cx="1176" cy="1452" r="75" fill="#1ECFDA"/>
<path d="M1165.9 1470L1182.16 1437.83V1437.54H1163.41V1433.64H1186.71V1437.76L1170.52 1470H1165.9Z" fill="black"/>
<circle cx="1476" cy="1750" r="75" fill="#FBAD76"/>
<path d="M1448.76 1769V1765.8L1460.77 1752.66C1462.18 1751.13 1463.34 1749.79 1464.25 1748.65C1465.16 1747.5 1465.83 1746.43 1466.27 1745.42C1466.72 1744.4 1466.95 1743.34 1466.95 1742.22C1466.95 1740.95 1466.64 1739.84 1466.02 1738.9C1465.42 1737.97 1464.59 1737.25 1463.54 1736.74C1462.48 1736.23 1461.3 1735.97 1459.99 1735.97C1458.59 1735.97 1457.37 1736.26 1456.33 1736.84C1455.3 1737.41 1454.5 1738.21 1453.93 1739.24C1453.37 1740.27 1453.1 1741.48 1453.1 1742.86H1448.91C1448.91 1740.73 1449.4 1738.86 1450.38 1737.25C1451.36 1735.64 1452.7 1734.39 1454.39 1733.49C1456.1 1732.59 1458.01 1732.14 1460.13 1732.14C1462.26 1732.14 1464.15 1732.59 1465.79 1733.49C1467.44 1734.39 1468.73 1735.6 1469.66 1737.13C1470.6 1738.66 1471.07 1740.35 1471.07 1742.22C1471.07 1743.56 1470.82 1744.87 1470.34 1746.15C1469.86 1747.42 1469.04 1748.83 1467.85 1750.39C1466.68 1751.94 1465.05 1753.84 1462.97 1756.07L1454.8 1764.81V1765.09H1471.7V1769H1448.76ZM1491.32 1769.5C1488.98 1769.5 1486.89 1769.09 1485.06 1768.29C1483.23 1767.48 1481.78 1766.37 1480.71 1764.93C1479.64 1763.49 1479.06 1761.81 1478.97 1759.91H1483.44C1483.54 1761.08 1483.94 1762.09 1484.65 1762.95C1485.36 1763.79 1486.29 1764.44 1487.44 1764.9C1488.58 1765.36 1489.86 1765.59 1491.25 1765.59C1492.82 1765.59 1494.2 1765.32 1495.41 1764.77C1496.62 1764.23 1497.56 1763.47 1498.25 1762.5C1498.94 1761.53 1499.28 1760.41 1499.28 1759.13C1499.28 1757.79 1498.95 1756.61 1498.28 1755.59C1497.62 1754.56 1496.65 1753.76 1495.37 1753.18C1494.09 1752.6 1492.53 1752.31 1490.69 1752.31H1487.77V1748.4H1490.69C1492.13 1748.4 1493.4 1748.14 1494.49 1747.62C1495.59 1747.1 1496.44 1746.37 1497.06 1745.42C1497.69 1744.47 1498 1743.36 1498 1742.08C1498 1740.85 1497.73 1739.78 1497.18 1738.87C1496.64 1737.96 1495.87 1737.25 1494.88 1736.74C1493.89 1736.23 1492.73 1735.97 1491.4 1735.97C1490.14 1735.97 1488.96 1736.21 1487.84 1736.67C1486.74 1737.12 1485.84 1737.77 1485.15 1738.64C1484.45 1739.49 1484.07 1740.52 1484.01 1741.73H1479.75C1479.82 1739.82 1480.39 1738.15 1481.47 1736.72C1482.55 1735.28 1483.96 1734.15 1485.7 1733.35C1487.45 1732.54 1489.37 1732.14 1491.47 1732.14C1493.72 1732.14 1495.65 1732.59 1497.25 1733.51C1498.86 1734.41 1500.1 1735.6 1500.97 1737.08C1501.83 1738.55 1502.26 1740.15 1502.26 1741.87C1502.26 1743.92 1501.72 1745.66 1500.65 1747.11C1499.58 1748.55 1498.13 1749.55 1496.3 1750.11V1750.39C1498.59 1750.77 1500.39 1751.75 1501.68 1753.32C1502.97 1754.88 1503.61 1756.82 1503.61 1759.13C1503.61 1761.1 1503.07 1762.88 1502 1764.45C1500.93 1766.02 1499.47 1767.25 1497.63 1768.15C1495.78 1769.05 1493.68 1769.5 1491.32 1769.5Z" fill="black"/>
<circle cx="209" cy="1676" r="75" fill="#FAE950"/>
<path d="M208.412 1694.5C205.973 1694.5 203.819 1694.07 201.949 1693.2C200.09 1692.33 198.64 1691.12 197.599 1689.6C196.557 1688.06 196.042 1686.31 196.054 1684.34C196.042 1682.8 196.344 1681.38 196.96 1680.08C197.575 1678.77 198.415 1677.67 199.481 1676.79C200.558 1675.91 201.759 1675.34 203.085 1675.11V1674.89C201.345 1674.45 199.96 1673.47 198.93 1671.97C197.901 1670.45 197.392 1668.73 197.403 1666.8C197.392 1664.95 197.859 1663.3 198.806 1661.84C199.753 1660.39 201.055 1659.24 202.712 1658.4C204.381 1657.56 206.281 1657.14 208.412 1657.14C210.519 1657.14 212.401 1657.56 214.058 1658.4C215.715 1659.24 217.018 1660.39 217.964 1661.84C218.923 1663.3 219.409 1664.95 219.42 1666.8C219.409 1668.73 218.882 1670.45 217.84 1671.97C216.81 1673.47 215.443 1674.45 213.739 1674.89V1675.11C215.053 1675.34 216.236 1675.91 217.29 1676.79C218.343 1677.67 219.184 1678.77 219.811 1680.08C220.438 1681.38 220.758 1682.8 220.77 1684.34C220.758 1686.31 220.225 1688.06 219.172 1689.6C218.13 1691.12 216.68 1692.33 214.822 1693.2C212.975 1694.07 210.839 1694.5 208.412 1694.5ZM208.412 1690.59C210.057 1690.59 211.478 1690.32 212.673 1689.79C213.869 1689.26 214.792 1688.51 215.443 1687.54C216.094 1686.57 216.426 1685.43 216.438 1684.13C216.426 1682.75 216.071 1681.54 215.372 1680.49C214.674 1679.43 213.721 1678.61 212.513 1678C211.318 1677.4 209.951 1677.1 208.412 1677.1C206.861 1677.1 205.476 1677.4 204.257 1678C203.05 1678.61 202.097 1679.43 201.398 1680.49C200.712 1681.54 200.375 1682.75 200.386 1684.13C200.375 1685.43 200.688 1686.57 201.327 1687.54C201.978 1688.51 202.908 1689.26 204.115 1689.79C205.322 1690.32 206.755 1690.59 208.412 1690.59ZM208.412 1673.33C209.714 1673.33 210.868 1673.07 211.874 1672.55C212.892 1672.03 213.691 1671.3 214.271 1670.37C214.851 1669.43 215.147 1668.34 215.159 1667.08C215.147 1665.85 214.857 1664.78 214.289 1663.87C213.721 1662.95 212.934 1662.24 211.928 1661.74C210.921 1661.23 209.75 1660.97 208.412 1660.97C207.051 1660.97 205.861 1661.23 204.843 1661.74C203.825 1662.24 203.038 1662.95 202.482 1663.87C201.925 1664.78 201.653 1665.85 201.665 1667.08C201.653 1668.34 201.931 1669.43 202.499 1670.37C203.079 1671.3 203.878 1672.03 204.896 1672.55C205.914 1673.07 207.086 1673.33 208.412 1673.33Z" fill="black"/>
<circle cx="208" cy="1320" r="75" fill="#CF68E9"/>
<path d="M197.548 1302.64V1339H193.145V1307.25H192.932L184.054 1313.15V1308.67L193.145 1302.64H197.548ZM219.583 1302.14C221.075 1302.15 222.566 1302.44 224.058 1302.99C225.549 1303.55 226.91 1304.47 228.141 1305.76C229.372 1307.04 230.361 1308.79 231.107 1311C231.852 1313.21 232.225 1315.99 232.225 1319.33C232.225 1322.56 231.917 1325.43 231.302 1327.94C230.698 1330.44 229.822 1332.54 228.674 1334.26C227.538 1335.98 226.153 1337.28 224.519 1338.17C222.897 1339.05 221.063 1339.5 219.015 1339.5C216.979 1339.5 215.162 1339.09 213.564 1338.29C211.978 1337.47 210.676 1336.34 209.658 1334.9C208.652 1333.44 208.006 1331.76 207.722 1329.84H212.055C212.445 1331.51 213.221 1332.89 214.381 1333.98C215.553 1335.05 217.097 1335.59 219.015 1335.59C221.82 1335.59 224.034 1334.37 225.656 1331.92C227.289 1329.47 228.106 1326 228.106 1321.53H227.822C227.159 1322.52 226.372 1323.38 225.46 1324.1C224.549 1324.83 223.537 1325.38 222.424 1325.77C221.311 1326.16 220.128 1326.36 218.873 1326.36C216.79 1326.36 214.878 1325.84 213.138 1324.81C211.41 1323.77 210.025 1322.35 208.983 1320.53C207.953 1318.71 207.438 1316.63 207.438 1314.28C207.438 1312.06 207.935 1310.02 208.93 1308.18C209.936 1306.32 211.344 1304.84 213.156 1303.74C214.978 1302.64 217.121 1302.1 219.583 1302.14ZM219.583 1306.05C218.092 1306.05 216.748 1306.42 215.553 1307.16C214.369 1307.9 213.428 1308.89 212.729 1310.15C212.043 1311.39 211.7 1312.77 211.7 1314.28C211.7 1315.8 212.031 1317.18 212.694 1318.42C213.369 1319.65 214.286 1320.63 215.446 1321.37C216.618 1322.09 217.95 1322.45 219.441 1322.45C220.566 1322.45 221.613 1322.23 222.584 1321.79C223.554 1321.34 224.401 1320.74 225.123 1319.97C225.857 1319.18 226.431 1318.3 226.845 1317.32C227.259 1316.33 227.467 1315.29 227.467 1314.21C227.467 1312.79 227.123 1311.46 226.437 1310.22C225.762 1308.98 224.827 1307.97 223.631 1307.2C222.448 1306.43 221.098 1306.05 219.583 1306.05Z" fill="black"/>
<circle cx="697" cy="1184" r="75" fill="#FAE950"/>
<path d="M669.764 1203V1199.8L681.767 1186.66C683.176 1185.13 684.336 1183.79 685.247 1182.65C686.159 1181.5 686.833 1180.43 687.271 1179.42C687.721 1178.4 687.946 1177.34 687.946 1176.22C687.946 1174.95 687.638 1173.84 687.023 1172.9C686.419 1171.97 685.59 1171.25 684.537 1170.74C683.483 1170.23 682.3 1169.97 680.986 1169.97C679.589 1169.97 678.37 1170.26 677.328 1170.84C676.298 1171.41 675.499 1172.21 674.931 1173.24C674.375 1174.27 674.097 1175.48 674.097 1176.86H669.906C669.906 1174.73 670.397 1172.86 671.38 1171.25C672.362 1169.64 673.7 1168.39 675.393 1167.49C677.097 1166.59 679.009 1166.14 681.128 1166.14C683.259 1166.14 685.147 1166.59 686.792 1167.49C688.437 1168.39 689.728 1169.6 690.663 1171.13C691.598 1172.66 692.065 1174.35 692.065 1176.22C692.065 1177.56 691.823 1178.87 691.337 1180.15C690.864 1181.42 690.035 1182.83 688.852 1184.39C687.68 1185.94 686.052 1187.84 683.969 1190.07L675.801 1198.81V1199.09H692.705V1203H669.764ZM712.112 1203.5C710.62 1203.47 709.129 1203.19 707.637 1202.64C706.146 1202.1 704.784 1201.18 703.553 1199.89C702.322 1198.59 701.334 1196.83 700.588 1194.62C699.842 1192.39 699.469 1189.6 699.469 1186.24C699.469 1183.02 699.771 1180.17 700.375 1177.68C700.979 1175.18 701.855 1173.08 703.003 1171.38C704.151 1169.66 705.536 1168.36 707.158 1167.47C708.791 1166.58 710.632 1166.14 712.68 1166.14C714.716 1166.14 716.527 1166.55 718.113 1167.36C719.711 1168.17 721.013 1169.29 722.019 1170.74C723.025 1172.18 723.676 1173.85 723.972 1175.73H719.64C719.237 1174.09 718.456 1172.74 717.296 1171.66C716.136 1170.58 714.597 1170.05 712.68 1170.05C709.862 1170.05 707.643 1171.27 706.021 1173.72C704.411 1176.17 703.601 1179.61 703.589 1184.04H703.873C704.536 1183.03 705.323 1182.17 706.234 1181.46C707.158 1180.74 708.176 1180.18 709.288 1179.79C710.401 1179.4 711.579 1179.21 712.822 1179.21C714.905 1179.21 716.811 1179.73 718.539 1180.77C720.267 1181.8 721.652 1183.23 722.694 1185.05C723.736 1186.86 724.256 1188.94 724.256 1191.28C724.256 1193.53 723.753 1195.59 722.747 1197.46C721.741 1199.32 720.326 1200.8 718.504 1201.9C716.692 1202.99 714.562 1203.52 712.112 1203.5ZM712.112 1199.59C713.603 1199.59 714.941 1199.22 716.124 1198.47C717.32 1197.73 718.261 1196.73 718.947 1195.47C719.646 1194.22 719.995 1192.82 719.995 1191.28C719.995 1189.78 719.658 1188.41 718.983 1187.18C718.32 1185.94 717.403 1184.95 716.231 1184.21C715.071 1183.48 713.745 1183.11 712.254 1183.11C711.129 1183.11 710.081 1183.34 709.111 1183.79C708.14 1184.23 707.288 1184.83 706.554 1185.6C705.832 1186.37 705.264 1187.25 704.849 1188.25C704.435 1189.23 704.228 1190.26 704.228 1191.35C704.228 1192.8 704.565 1194.15 705.24 1195.4C705.927 1196.66 706.862 1197.67 708.045 1198.44C709.241 1199.21 710.596 1199.59 712.112 1199.59Z" fill="black"/>
<circle cx="2297" cy="266" r="75" fill="#CF68E9"/>
<path d="M2269.76 285V281.804L2281.77 268.665C2283.18 267.126 2284.34 265.788 2285.25 264.652C2286.16 263.504 2286.83 262.427 2287.27 261.42C2287.72 260.402 2287.95 259.337 2287.95 258.224C2287.95 256.946 2287.64 255.839 2287.02 254.904C2286.42 253.969 2285.59 253.247 2284.54 252.738C2283.48 252.229 2282.3 251.974 2280.99 251.974C2279.59 251.974 2278.37 252.264 2277.33 252.844C2276.3 253.413 2275.5 254.212 2274.93 255.241C2274.37 256.271 2274.1 257.479 2274.1 258.864H2269.91C2269.91 256.733 2270.4 254.863 2271.38 253.253C2272.36 251.643 2273.7 250.388 2275.39 249.489C2277.1 248.589 2279.01 248.139 2281.13 248.139C2283.26 248.139 2285.15 248.589 2286.79 249.489C2288.44 250.388 2289.73 251.602 2290.66 253.129C2291.6 254.656 2292.07 256.354 2292.07 258.224C2292.07 259.562 2291.82 260.87 2291.34 262.148C2290.86 263.415 2290.04 264.83 2288.85 266.392C2287.68 267.943 2286.05 269.837 2283.97 272.074L2275.8 280.81V281.094H2292.7V285H2269.76ZM2311.9 285.497C2309.22 285.497 2306.94 284.769 2305.06 283.313C2303.18 281.845 2301.74 279.721 2300.75 276.939C2299.75 274.145 2299.26 270.772 2299.26 266.818C2299.26 262.888 2299.75 259.532 2300.75 256.751C2301.75 253.957 2303.2 251.826 2305.08 250.359C2306.97 248.879 2309.25 248.139 2311.9 248.139C2314.55 248.139 2316.82 248.879 2318.7 250.359C2320.59 251.826 2322.04 253.957 2323.03 256.751C2324.04 259.532 2324.54 262.888 2324.54 266.818C2324.54 270.772 2324.04 274.145 2323.05 276.939C2322.05 279.721 2320.62 281.845 2318.73 283.313C2316.85 284.769 2314.57 285.497 2311.9 285.497ZM2311.9 281.591C2314.55 281.591 2316.61 280.312 2318.08 277.756C2319.55 275.199 2320.28 271.553 2320.28 266.818C2320.28 263.67 2319.94 260.988 2319.27 258.775C2318.6 256.561 2317.65 254.875 2316.39 253.714C2315.15 252.554 2313.65 251.974 2311.9 251.974C2309.27 251.974 2307.22 253.271 2305.74 255.863C2304.26 258.443 2303.52 262.095 2303.52 266.818C2303.52 269.967 2303.85 272.642 2304.51 274.844C2305.17 277.045 2306.13 278.72 2307.37 279.869C2308.63 281.017 2310.13 281.591 2311.9 281.591Z" fill="black"/>
<circle cx="3239" cy="284" r="75" fill="#CF68E9"/>
<path d="M3215.76 303V299.804L3227.77 286.665C3229.18 285.126 3230.34 283.788 3231.25 282.652C3232.16 281.504 3232.83 280.427 3233.27 279.42C3233.72 278.402 3233.95 277.337 3233.95 276.224C3233.95 274.946 3233.64 273.839 3233.02 272.904C3232.42 271.969 3231.59 271.247 3230.54 270.738C3229.48 270.229 3228.3 269.974 3226.99 269.974C3225.59 269.974 3224.37 270.264 3223.33 270.844C3222.3 271.413 3221.5 272.212 3220.93 273.241C3220.37 274.271 3220.1 275.479 3220.1 276.864H3215.91C3215.91 274.733 3216.4 272.863 3217.38 271.253C3218.36 269.643 3219.7 268.388 3221.39 267.489C3223.1 266.589 3225.01 266.139 3227.13 266.139C3229.26 266.139 3231.15 266.589 3232.79 267.489C3234.44 268.388 3235.73 269.602 3236.66 271.129C3237.6 272.656 3238.07 274.354 3238.07 276.224C3238.07 277.562 3237.82 278.87 3237.34 280.148C3236.86 281.415 3236.04 282.83 3234.85 284.392C3233.68 285.943 3232.05 287.837 3229.97 290.074L3221.8 298.81V299.094H3238.7V303H3215.76ZM3258.82 266.636V303H3254.42V271.253H3254.21L3245.33 277.148V272.673L3254.42 266.636H3258.82Z" fill="black"/>
<circle cx="2632" cy="932" r="75" fill="#FF6D6D"/>
<path d="M2603.76 950V946.804L2615.77 933.665C2617.18 932.126 2618.34 930.788 2619.25 929.652C2620.16 928.504 2620.83 927.427 2621.27 926.42C2621.72 925.402 2621.95 924.337 2621.95 923.224C2621.95 921.946 2621.64 920.839 2621.02 919.904C2620.42 918.969 2619.59 918.247 2618.54 917.738C2617.48 917.229 2616.3 916.974 2614.99 916.974C2613.59 916.974 2612.37 917.264 2611.33 917.844C2610.3 918.413 2609.5 919.212 2608.93 920.241C2608.37 921.271 2608.1 922.479 2608.1 923.864H2603.91C2603.91 921.733 2604.4 919.863 2605.38 918.253C2606.36 916.643 2607.7 915.388 2609.39 914.489C2611.1 913.589 2613.01 913.139 2615.13 913.139C2617.26 913.139 2619.15 913.589 2620.79 914.489C2622.44 915.388 2623.73 916.602 2624.66 918.129C2625.6 919.656 2626.07 921.354 2626.07 923.224C2626.07 924.562 2625.82 925.87 2625.34 927.148C2624.86 928.415 2624.04 929.83 2622.85 931.392C2621.68 932.943 2620.05 934.837 2617.97 937.074L2609.8 945.81V946.094H2626.7V950H2603.76ZM2645.4 950.497C2643.32 950.497 2641.44 950.083 2639.77 949.254C2638.1 948.426 2636.77 947.289 2635.76 945.845C2634.75 944.401 2634.2 942.756 2634.11 940.909H2638.37C2638.54 942.554 2639.28 943.916 2640.61 944.993C2641.94 946.058 2643.54 946.591 2645.4 946.591C2646.89 946.591 2648.22 946.242 2649.38 945.543C2650.55 944.845 2651.47 943.886 2652.13 942.667C2652.81 941.436 2653.14 940.045 2653.14 938.494C2653.14 936.908 2652.79 935.494 2652.1 934.251C2651.41 932.996 2650.46 932.008 2649.25 931.286C2648.05 930.563 2646.67 930.196 2645.12 930.185C2644 930.173 2642.86 930.344 2641.69 930.7C2640.52 931.043 2639.55 931.487 2638.8 932.031L2634.68 931.534L2636.88 913.636H2655.77V917.543H2640.57L2639.29 928.267H2639.51C2640.25 927.675 2641.19 927.184 2642.31 926.793C2643.44 926.403 2644.61 926.207 2645.83 926.207C2648.05 926.207 2650.04 926.74 2651.78 927.805C2653.53 928.859 2654.9 930.303 2655.89 932.138C2656.9 933.973 2657.4 936.068 2657.4 938.423C2657.4 940.743 2656.88 942.815 2655.84 944.638C2654.81 946.449 2653.39 947.881 2651.58 948.935C2649.77 949.976 2647.71 950.497 2645.4 950.497Z" fill="black"/>
<circle cx="3286" cy="1739" r="75" fill="#FBAD76"/>
<path d="M3276.55 1721.64V1758H3272.14V1726.25H3271.93L3263.05 1732.15V1727.67L3272.14 1721.64H3276.55ZM3288.14 1758L3304.41 1725.83V1725.54H3285.66V1721.64H3308.95V1725.76L3292.76 1758H3288.14Z" fill="black"/>
<circle cx="2955" cy="1482" r="75" fill="#FBAD76"/>
<path d="M2928.76 1501V1497.8L2940.77 1484.66C2942.18 1483.13 2943.34 1481.79 2944.25 1480.65C2945.16 1479.5 2945.83 1478.43 2946.27 1477.42C2946.72 1476.4 2946.95 1475.34 2946.95 1474.22C2946.95 1472.95 2946.64 1471.84 2946.02 1470.9C2945.42 1469.97 2944.59 1469.25 2943.54 1468.74C2942.48 1468.23 2941.3 1467.97 2939.99 1467.97C2938.59 1467.97 2937.37 1468.26 2936.33 1468.84C2935.3 1469.41 2934.5 1470.21 2933.93 1471.24C2933.37 1472.27 2933.1 1473.48 2933.1 1474.86H2928.91C2928.91 1472.73 2929.4 1470.86 2930.38 1469.25C2931.36 1467.64 2932.7 1466.39 2934.39 1465.49C2936.1 1464.59 2938.01 1464.14 2940.13 1464.14C2942.26 1464.14 2944.15 1464.59 2945.79 1465.49C2947.44 1466.39 2948.73 1467.6 2949.66 1469.13C2950.6 1470.66 2951.07 1472.35 2951.07 1474.22C2951.07 1475.56 2950.82 1476.87 2950.34 1478.15C2949.86 1479.42 2949.04 1480.83 2947.85 1482.39C2946.68 1483.94 2945.05 1485.84 2942.97 1488.07L2934.8 1496.81V1497.09H2951.7V1501H2928.76ZM2959.04 1501V1497.8L2971.04 1484.66C2972.45 1483.13 2973.61 1481.79 2974.52 1480.65C2975.43 1479.5 2976.11 1478.43 2976.54 1477.42C2976.99 1476.4 2977.22 1475.34 2977.22 1474.22C2977.22 1472.95 2976.91 1471.84 2976.3 1470.9C2975.69 1469.97 2974.86 1469.25 2973.81 1468.74C2972.76 1468.23 2971.57 1467.97 2970.26 1467.97C2968.86 1467.97 2967.64 1468.26 2966.6 1468.84C2965.57 1469.41 2964.77 1470.21 2964.2 1471.24C2963.65 1472.27 2963.37 1473.48 2963.37 1474.86H2959.18C2959.18 1472.73 2959.67 1470.86 2960.65 1469.25C2961.64 1467.64 2962.97 1466.39 2964.67 1465.49C2966.37 1464.59 2968.28 1464.14 2970.4 1464.14C2972.53 1464.14 2974.42 1464.59 2976.07 1465.49C2977.71 1466.39 2979 1467.6 2979.94 1469.13C2980.87 1470.66 2981.34 1472.35 2981.34 1474.22C2981.34 1475.56 2981.1 1476.87 2980.61 1478.15C2980.14 1479.42 2979.31 1480.83 2978.12 1482.39C2976.95 1483.94 2975.33 1485.84 2973.24 1488.07L2965.07 1496.81V1497.09H2981.98V1501H2959.04Z" fill="black"/>
<circle cx="2440" cy="1377" r="75" fill="#1ECFDA"/>
<path d="M2439.34 1358.14C2440.83 1358.15 2442.32 1358.44 2443.82 1358.99C2445.31 1359.55 2446.67 1360.47 2447.9 1361.76C2449.13 1363.04 2450.12 1364.79 2450.86 1367C2451.61 1369.21 2451.98 1371.99 2451.98 1375.33C2451.98 1378.56 2451.68 1381.43 2451.06 1383.94C2450.46 1386.44 2449.58 1388.54 2448.43 1390.26C2447.3 1391.98 2445.91 1393.28 2444.28 1394.17C2442.66 1395.05 2440.82 1395.5 2438.77 1395.5C2436.74 1395.5 2434.92 1395.09 2433.32 1394.29C2431.74 1393.47 2430.43 1392.34 2429.42 1390.9C2428.41 1389.44 2427.76 1387.76 2427.48 1385.84H2431.81C2432.2 1387.51 2432.98 1388.89 2434.14 1389.98C2435.31 1391.05 2436.86 1391.59 2438.77 1391.59C2441.58 1391.59 2443.79 1390.37 2445.41 1387.92C2447.05 1385.47 2447.86 1382 2447.86 1377.53H2447.58C2446.92 1378.52 2446.13 1379.38 2445.22 1380.1C2444.31 1380.83 2443.29 1381.38 2442.18 1381.77C2441.07 1382.16 2439.89 1382.36 2438.63 1382.36C2436.55 1382.36 2434.64 1381.84 2432.9 1380.81C2431.17 1379.77 2429.78 1378.35 2428.74 1376.53C2427.71 1374.71 2427.2 1372.63 2427.2 1370.28C2427.2 1368.06 2427.69 1366.02 2428.69 1364.18C2429.69 1362.32 2431.1 1360.84 2432.91 1359.74C2434.74 1358.64 2436.88 1358.1 2439.34 1358.14ZM2439.34 1362.05C2437.85 1362.05 2436.51 1362.42 2435.31 1363.16C2434.13 1363.9 2433.19 1364.89 2432.49 1366.15C2431.8 1367.39 2431.46 1368.77 2431.46 1370.28C2431.46 1371.8 2431.79 1373.18 2432.45 1374.42C2433.13 1375.65 2434.04 1376.63 2435.2 1377.37C2436.38 1378.09 2437.71 1378.45 2439.2 1378.45C2440.32 1378.45 2441.37 1378.23 2442.34 1377.79C2443.31 1377.34 2444.16 1376.74 2444.88 1375.97C2445.61 1375.18 2446.19 1374.3 2446.6 1373.32C2447.02 1372.33 2447.22 1371.29 2447.22 1370.21C2447.22 1368.79 2446.88 1367.46 2446.19 1366.22C2445.52 1364.98 2444.58 1363.97 2443.39 1363.2C2442.21 1362.43 2440.86 1362.05 2439.34 1362.05Z" fill="black"/>
<circle cx="591" cy="1750" r="75" fill="#FBAD76"/>
<path d="M579.548 1731.64V1768H575.145V1736.25H574.932L566.054 1742.15V1737.67L575.145 1731.64H579.548ZM601.867 1768.5C599.192 1768.5 596.913 1767.77 595.031 1766.31C593.149 1764.85 591.711 1762.72 590.717 1759.94C589.722 1757.15 589.225 1753.77 589.225 1749.82C589.225 1745.89 589.722 1742.53 590.717 1739.75C591.723 1736.96 593.167 1734.83 595.049 1733.36C596.943 1731.88 599.216 1731.14 601.867 1731.14C604.519 1731.14 606.786 1731.88 608.668 1733.36C610.562 1734.83 612.006 1736.96 613 1739.75C614.006 1742.53 614.509 1745.89 614.509 1749.82C614.509 1753.77 614.012 1757.15 613.018 1759.94C612.023 1762.72 610.585 1764.85 608.703 1766.31C606.821 1767.77 604.542 1768.5 601.867 1768.5ZM601.867 1764.59C604.519 1764.59 606.578 1763.31 608.046 1760.76C609.514 1758.2 610.248 1754.55 610.248 1749.82C610.248 1746.67 609.911 1743.99 609.236 1741.77C608.573 1739.56 607.614 1737.87 606.359 1736.71C605.116 1735.55 603.619 1734.97 601.867 1734.97C599.239 1734.97 597.186 1736.27 595.706 1738.86C594.226 1741.44 593.487 1745.1 593.487 1749.82C593.487 1752.97 593.818 1755.64 594.481 1757.84C595.144 1760.05 596.097 1761.72 597.339 1762.87C598.594 1764.02 600.103 1764.59 601.867 1764.59Z" fill="black"/>
<circle cx="2222" cy="720" r="75" fill="#FF6D6D"/>
<path d="M2194.76 739V735.804L2206.77 722.665C2208.18 721.126 2209.34 719.788 2210.25 718.652C2211.16 717.504 2211.83 716.427 2212.27 715.42C2212.72 714.402 2212.95 713.337 2212.95 712.224C2212.95 710.946 2212.64 709.839 2212.02 708.904C2211.42 707.969 2210.59 707.247 2209.54 706.738C2208.48 706.229 2207.3 705.974 2205.99 705.974C2204.59 705.974 2203.37 706.264 2202.33 706.844C2201.3 707.413 2200.5 708.212 2199.93 709.241C2199.37 710.271 2199.1 711.479 2199.1 712.864H2194.91C2194.91 710.733 2195.4 708.863 2196.38 707.253C2197.36 705.643 2198.7 704.388 2200.39 703.489C2202.1 702.589 2204.01 702.139 2206.13 702.139C2208.26 702.139 2210.15 702.589 2211.79 703.489C2213.44 704.388 2214.73 705.602 2215.66 707.129C2216.6 708.656 2217.07 710.354 2217.07 712.224C2217.07 713.562 2216.82 714.87 2216.34 716.148C2215.86 717.415 2215.04 718.83 2213.85 720.392C2212.68 721.943 2211.05 723.837 2208.97 726.074L2200.8 734.81V735.094H2217.7V739H2194.76ZM2223.4 731.543V727.92L2239.38 702.636H2242.01V708.247H2240.24L2228.16 727.352V727.636H2249.68V731.543H2223.4ZM2240.52 739V730.442V728.755V702.636H2244.71V739H2240.52Z" fill="black"/>
<circle cx="1968" cy="1214" r="75" fill="#FAE950"/>
<path d="M1960.55 1196.64V1233H1956.14V1201.25H1955.93L1947.05 1207.15V1202.67L1956.14 1196.64H1960.55ZM1983.79 1196.64V1233H1979.39V1201.25H1979.17L1970.3 1207.15V1202.67L1979.39 1196.64H1983.79Z" fill="black"/>
<circle cx="1476" cy="962" r="75" fill="#FF6D6D"/>
<path d="M1465.55 943.636V980H1461.14V948.253H1460.93L1452.05 954.148V949.673L1461.14 943.636H1465.55ZM1476.01 980V976.804L1488.01 963.665C1489.42 962.126 1490.58 960.788 1491.49 959.652C1492.4 958.504 1493.08 957.427 1493.51 956.42C1493.96 955.402 1494.19 954.337 1494.19 953.224C1494.19 951.946 1493.88 950.839 1493.26 949.904C1492.66 948.969 1491.83 948.247 1490.78 947.738C1489.73 947.229 1488.54 946.974 1487.23 946.974C1485.83 946.974 1484.61 947.264 1483.57 947.844C1482.54 948.413 1481.74 949.212 1481.17 950.241C1480.62 951.271 1480.34 952.479 1480.34 953.864H1476.15C1476.15 951.733 1476.64 949.863 1477.62 948.253C1478.6 946.643 1479.94 945.388 1481.63 944.489C1483.34 943.589 1485.25 943.139 1487.37 943.139C1489.5 943.139 1491.39 943.589 1493.03 944.489C1494.68 945.388 1495.97 946.602 1496.9 948.129C1497.84 949.656 1498.31 951.354 1498.31 953.224C1498.31 954.562 1498.06 955.87 1497.58 957.148C1497.11 958.415 1496.28 959.83 1495.09 961.392C1493.92 962.943 1492.29 964.837 1490.21 967.074L1482.04 975.81V976.094H1498.95V980H1476.01Z" fill="black"/>
<circle cx="2043" cy="1705" r="75" fill="#FF6D6D"/>
<path d="M2031.55 1686.64V1723H2027.14V1691.25H2026.93L2018.05 1697.15V1692.67L2027.14 1686.64H2031.55ZM2054.29 1723.5C2051.95 1723.5 2049.86 1723.09 2048.03 1722.29C2046.2 1721.48 2044.75 1720.37 2043.68 1718.93C2042.61 1717.49 2042.03 1715.81 2041.94 1713.91H2046.41C2046.5 1715.08 2046.91 1716.09 2047.62 1716.95C2048.33 1717.79 2049.26 1718.44 2050.4 1718.9C2051.55 1719.36 2052.83 1719.59 2054.22 1719.59C2055.78 1719.59 2057.17 1719.32 2058.38 1718.77C2059.58 1718.23 2060.53 1717.47 2061.22 1716.5C2061.9 1715.53 2062.25 1714.41 2062.25 1713.13C2062.25 1711.79 2061.92 1710.61 2061.25 1709.59C2060.59 1708.56 2059.62 1707.76 2058.34 1707.18C2057.06 1706.6 2055.5 1706.31 2053.65 1706.31H2050.74V1702.4H2053.65C2055.1 1702.4 2056.36 1702.14 2057.45 1701.62C2058.55 1701.1 2059.41 1700.37 2060.03 1699.42C2060.66 1698.47 2060.97 1697.36 2060.97 1696.08C2060.97 1694.85 2060.7 1693.78 2060.15 1692.87C2059.61 1691.96 2058.84 1691.25 2057.84 1690.74C2056.86 1690.23 2055.7 1689.97 2054.36 1689.97C2053.11 1689.97 2051.93 1690.21 2050.81 1690.67C2049.71 1691.12 2048.81 1691.77 2048.11 1692.64C2047.42 1693.49 2047.04 1694.52 2046.98 1695.73H2042.72C2042.79 1693.82 2043.36 1692.15 2044.44 1690.72C2045.52 1689.28 2046.92 1688.15 2048.66 1687.35C2050.42 1686.54 2052.34 1686.14 2054.44 1686.14C2056.68 1686.14 2058.61 1686.59 2060.22 1687.51C2061.83 1688.41 2063.07 1689.6 2063.93 1691.08C2064.8 1692.55 2065.23 1694.15 2065.23 1695.87C2065.23 1697.92 2064.69 1699.66 2063.62 1701.11C2062.55 1702.55 2061.1 1703.55 2059.26 1704.11V1704.39C2061.56 1704.77 2063.35 1705.75 2064.64 1707.32C2065.94 1708.88 2066.58 1710.82 2066.58 1713.13C2066.58 1715.1 2066.04 1716.88 2064.96 1718.45C2063.9 1720.02 2062.44 1721.25 2060.6 1722.15C2058.75 1723.05 2056.65 1723.5 2054.29 1723.5Z" fill="black"/>
<circle cx="413" cy="482" r="75" fill="#FF6D6D"/>
<path d="M402.548 463.636V500H398.145V468.253H397.932L389.054 474.148V469.673L398.145 463.636H402.548ZM424.37 500.497C422.287 500.497 420.411 500.083 418.741 499.254C417.072 498.426 415.735 497.289 414.729 495.845C413.723 494.401 413.172 492.756 413.077 490.909H417.339C417.504 492.554 418.25 493.916 419.576 494.993C420.914 496.058 422.512 496.591 424.37 496.591C425.862 496.591 427.187 496.242 428.347 495.543C429.519 494.845 430.437 493.886 431.099 492.667C431.774 491.436 432.112 490.045 432.112 488.494C432.112 486.908 431.762 485.494 431.064 484.251C430.377 482.996 429.43 482.008 428.223 481.286C427.016 480.563 425.637 480.196 424.086 480.185C422.973 480.173 421.831 480.344 420.659 480.7C419.487 481.043 418.522 481.487 417.765 482.031L413.646 481.534L415.847 463.636H434.739V467.543H419.54L418.262 478.267H418.475C419.221 477.675 420.156 477.184 421.281 476.793C422.405 476.403 423.577 476.207 424.796 476.207C427.022 476.207 429.004 476.74 430.744 477.805C432.496 478.859 433.869 480.303 434.864 482.138C435.87 483.973 436.373 486.068 436.373 488.423C436.373 490.743 435.852 492.815 434.81 494.638C433.781 496.449 432.36 497.881 430.549 498.935C428.738 499.976 426.678 500.497 424.37 500.497Z" fill="black"/>
<circle cx="1818" cy="253" r="75" fill="#1ECFDA"/>
<path d="M1807.55 235.636V272H1803.14V240.253H1802.93L1794.05 246.148V241.673L1803.14 235.636H1807.55ZM1829.65 272.497C1827.22 272.497 1825.06 272.065 1823.19 271.201C1821.33 270.325 1819.88 269.124 1818.84 267.597C1817.8 266.058 1817.28 264.306 1817.3 262.341C1817.28 260.802 1817.59 259.382 1818.2 258.08C1818.82 256.766 1819.66 255.671 1820.72 254.795C1821.8 253.907 1823 253.345 1824.33 253.108V252.895C1822.59 252.445 1821.2 251.469 1820.17 249.965C1819.14 248.45 1818.63 246.728 1818.65 244.798C1818.63 242.952 1819.1 241.3 1820.05 239.844C1821 238.388 1822.3 237.24 1823.95 236.4C1825.62 235.559 1827.52 235.139 1829.65 235.139C1831.76 235.139 1833.64 235.559 1835.3 236.4C1836.96 237.24 1838.26 238.388 1839.21 239.844C1840.17 241.3 1840.65 242.952 1840.66 244.798C1840.65 246.728 1840.12 248.45 1839.08 249.965C1838.05 251.469 1836.69 252.445 1834.98 252.895V253.108C1836.29 253.345 1837.48 253.907 1838.53 254.795C1839.59 255.671 1840.43 256.766 1841.05 258.08C1841.68 259.382 1842 260.802 1842.01 262.341C1842 264.306 1841.47 266.058 1840.41 267.597C1839.37 269.124 1837.92 270.325 1836.06 271.201C1834.22 272.065 1832.08 272.497 1829.65 272.497ZM1829.65 268.591C1831.3 268.591 1832.72 268.325 1833.92 267.792C1835.11 267.259 1836.03 266.508 1836.69 265.537C1837.34 264.566 1837.67 263.43 1837.68 262.128C1837.67 260.755 1837.31 259.541 1836.61 258.488C1835.92 257.434 1834.96 256.606 1833.76 256.002C1832.56 255.398 1831.19 255.097 1829.65 255.097C1828.1 255.097 1826.72 255.398 1825.5 256.002C1824.29 256.606 1823.34 257.434 1822.64 258.488C1821.95 259.541 1821.62 260.755 1821.63 262.128C1821.62 263.43 1821.93 264.566 1822.57 265.537C1823.22 266.508 1824.15 267.259 1825.36 267.792C1826.56 268.325 1828 268.591 1829.65 268.591ZM1829.65 251.332C1830.96 251.332 1832.11 251.072 1833.12 250.551C1834.13 250.03 1834.93 249.302 1835.51 248.367C1836.09 247.432 1836.39 246.337 1836.4 245.082C1836.39 243.851 1836.1 242.78 1835.53 241.869C1834.96 240.945 1834.18 240.235 1833.17 239.738C1832.16 239.229 1830.99 238.974 1829.65 238.974C1828.29 238.974 1827.1 239.229 1826.09 239.738C1825.07 240.235 1824.28 240.945 1823.72 241.869C1823.17 242.78 1822.9 243.851 1822.91 245.082C1822.9 246.337 1823.17 247.432 1823.74 248.367C1824.32 249.302 1825.12 250.03 1826.14 250.551C1827.16 251.072 1828.33 251.332 1829.65 251.332Z" fill="black"/>
<path d="M295 261.5C292.5 261.5 290.5 263.5 290.5 266C290.5 268.5 292.5 270.5 295 270.5C297.5 270.5 299.5 268.5 299.5 266C299.5 263.5 297.5 261.5 295 261.5Z" fill="white"/>
<path d="M560.061 267.061C560.646 266.475 560.646 265.525 560.061 264.939L550.515 255.393C549.929 254.808 548.979 254.808 548.393 255.393C547.808 255.979 547.808 256.929 548.393 257.515L556.879 266L548.393 274.485C547.808 275.071 547.808 276.021 548.393 276.607C548.979 277.192 549.929 277.192 550.515 276.607L560.061 267.061ZM292 266C292 264.328 293.328 263 295 263V260C291.672 260 289 262.672 289 266H292ZM295 263C296.672 263 298 264.328 298 266H301C301 262.672 298.328 260 295 260V263ZM298 266C298 267.672 296.672 269 295 269V272C298.328 272 301 269.328 301 266H298ZM295 269C293.328 269 292 267.672 292 266H289C289 269.328 291.672 272 295 272V269ZM299.5 267.5H559V264.5H299.5V267.5Z" fill="black"/>
<path d="M634 336.5C631.5 336.5 629.5 338.5 629.5 341C629.5 343.5 631.5 345.5 634 345.5C636.5 345.5 638.5 343.5 638.5 341C638.5 338.5 636.5 336.5 634 336.5Z" fill="white"/>
<path d="M632.939 602.061C633.525 602.646 634.475 602.646 635.061 602.061L644.607 592.515C645.192 591.929 645.192 590.979 644.607 590.393C644.021 589.808 643.071 589.808 642.485 590.393L634 598.879L625.515 590.393C624.929 589.808 623.979 589.808 623.393 590.393C622.808 590.979 622.808 591.929 623.393 592.515L632.939 602.061ZM631 341C631 339.328 632.328 338 634 338V335C630.672 335 628 337.672 628 341H631ZM634 338C635.672 338 637 339.328 637 341H640C640 337.672 637.328 335 634 335V338ZM637 341C637 342.672 635.672 344 634 344V347C637.328 347 640 344.328 640 341H637ZM634 344C632.328 344 631 342.672 631 341H628C628 344.328 630.672 347 634 347V344ZM632.5 345.5V601H635.5V345.5H632.5Z" fill="black"/>
<path d="M559 671.5C556.5 671.5 554.5 673.5 554.5 676C554.5 678.5 556.5 680.5 559 680.5C561.5 680.5 563.5 678.5 563.5 676C563.5 673.5 561.5 671.5 559 671.5Z" fill="white"/>
<path d="M486.939 480.939C486.354 481.525 486.354 482.475 486.939 483.061L496.485 492.607C497.071 493.192 498.021 493.192 498.607 492.607C499.192 492.021 499.192 491.071 498.607 490.485L490.121 482L498.607 473.515C499.192 472.929 499.192 471.979 498.607 471.393C498.021 470.808 497.071 470.808 496.485 471.393L486.939 480.939ZM556 676C556 674.328 557.328 673 559 673V670C555.672 670 553 672.672 553 676H556ZM559 673C560.672 673 562 674.328 562 676H565C565 672.672 562.328 670 559 670V673ZM562 676C562 677.672 560.672 679 559 679V682C562.328 682 565 679.328 565 676H562ZM559 679C557.328 679 556 677.672 556 676H553C553 679.328 555.672 682 559 682V679ZM554.5 674.5H543.5V677.5H554.5V674.5ZM525 656V502H522V656H525ZM503.5 480.5H488V483.5H503.5V480.5ZM525 502C525 490.126 515.374 480.5 503.5 480.5V483.5C513.717 483.5 522 491.783 522 502H525ZM543.5 674.5C533.283 674.5 525 666.217 525 656H522C522 667.874 531.626 677.5 543.5 677.5V674.5Z" fill="black"/>
<path d="M559 671.5C556.5 671.5 554.5 673.5 554.5 676C554.5 678.5 556.5 680.5 559 680.5C561.5 680.5 563.5 678.5 563.5 676C563.5 673.5 561.5 671.5 559 671.5Z" fill="white"/>
<path d="M293.939 674.939C293.354 675.525 293.354 676.475 293.939 677.061L303.485 686.607C304.071 687.192 305.021 687.192 305.607 686.607C306.192 686.021 306.192 685.071 305.607 684.485L297.121 676L305.607 667.515C306.192 666.929 306.192 665.979 305.607 665.393C305.021 664.808 304.071 664.808 303.485 665.393L293.939 674.939ZM556 676C556 674.328 557.328 673 559 673V670C555.672 670 553 672.672 553 676H556ZM559 673C560.672 673 562 674.328 562 676H565C565 672.672 562.328 670 559 670V673ZM562 676C562 677.672 560.672 679 559 679V682C562.328 682 565 679.328 565 676H562ZM559 679C557.328 679 556 677.672 556 676H553C553 679.328 555.672 682 559 682V679ZM554.5 674.5H295V677.5H554.5V674.5Z" fill="black"/>
<path d="M220 336.5C217.5 336.5 215.5 338.5 215.5 341C215.5 343.5 217.5 345.5 220 345.5C222.5 345.5 224.5 343.5 224.5 341C224.5 338.5 222.5 336.5 220 336.5Z" fill="white"/>
<path d="M218.939 602.061C219.525 602.646 220.475 602.646 221.061 602.061L230.607 592.515C231.192 591.929 231.192 590.979 230.607 590.393C230.021 589.808 229.071 589.808 228.485 590.393L220 598.879L211.515 590.393C210.929 589.808 209.979 589.808 209.393 590.393C208.808 590.979 208.808 591.929 209.393 592.515L218.939 602.061ZM217 341C217 339.328 218.328 338 220 338V335C216.672 335 214 337.672 214 341H217ZM220 338C221.672 338 223 339.328 223 341H226C226 337.672 223.328 335 220 335V338ZM223 341C223 342.672 221.672 344 220 344V347C223.328 347 226 344.328 226 341H223ZM220 344C218.328 344 217 342.672 217 341H214C214 344.328 216.672 347 220 347V344ZM218.5 345.5V601H221.5V345.5H218.5Z" fill="black"/>
<path d="M709 261.5C706.5 261.5 704.5 263.5 704.5 266C704.5 268.5 706.5 270.5 709 270.5C711.5 270.5 713.5 268.5 713.5 266C713.5 263.5 711.5 261.5 709 261.5Z" fill="white"/>
<path d="M1328.06 438.061C1328.65 437.475 1328.65 436.525 1328.06 435.939L1318.51 426.393C1317.93 425.808 1316.98 425.808 1316.39 426.393C1315.81 426.979 1315.81 427.929 1316.39 428.515L1324.88 437L1316.39 445.485C1315.81 446.071 1315.81 447.021 1316.39 447.607C1316.98 448.192 1317.93 448.192 1318.51 447.607L1328.06 438.061ZM706 266C706 264.328 707.328 263 709 263V260C705.672 260 703 262.672 703 266H706ZM709 263C710.672 263 712 264.328 712 266H715C715 262.672 712.328 260 709 260V263ZM712 266C712 267.672 710.672 269 709 269V272C712.328 272 715 269.328 715 266H712ZM709 269C707.328 269 706 267.672 706 266H703C703 269.328 705.672 272 709 272V269ZM713.5 267.5H998V264.5H713.5V267.5ZM1016.5 286V417H1019.5V286H1016.5ZM1038 438.5H1327V435.5H1038V438.5ZM1016.5 417C1016.5 428.874 1026.13 438.5 1038 438.5V435.5C1027.78 435.5 1019.5 427.217 1019.5 417H1016.5ZM998 267.5C1008.22 267.5 1016.5 275.783 1016.5 286H1019.5C1019.5 274.126 1009.87 264.5 998 264.5V267.5Z" fill="black"/>
<path d="M1402 507.5C1399.5 507.5 1397.5 509.5 1397.5 512C1397.5 514.5 1399.5 516.5 1402 516.5C1404.5 516.5 1406.5 514.5 1406.5 512C1406.5 509.5 1404.5 507.5 1402 507.5Z" fill="white"/>
<path d="M1474.94 888.061C1475.53 888.646 1476.47 888.646 1477.06 888.061L1486.61 878.515C1487.19 877.929 1487.19 876.979 1486.61 876.393C1486.02 875.808 1485.07 875.808 1484.49 876.393L1476 884.879L1467.51 876.393C1466.93 875.808 1465.98 875.808 1465.39 876.393C1464.81 876.979 1464.81 877.929 1465.39 878.515L1474.94 888.061ZM1399 512C1399 510.328 1400.33 509 1402 509V506C1398.67 506 1396 508.672 1396 512H1399ZM1402 509C1403.67 509 1405 510.328 1405 512H1408C1408 508.672 1405.33 506 1402 506V509ZM1405 512C1405 513.672 1403.67 515 1402 515V518C1405.33 518 1408 515.328 1408 512H1405ZM1402 515C1400.33 515 1399 513.672 1399 512H1396C1396 515.328 1398.67 518 1402 518V515ZM1400.5 516.5V679.5H1403.5V516.5H1400.5ZM1422 701H1456V698H1422V701ZM1474.5 719.5V887H1477.5V719.5H1474.5ZM1456 701C1466.22 701 1474.5 709.283 1474.5 719.5H1477.5C1477.5 707.626 1467.87 698 1456 698V701ZM1400.5 679.5C1400.5 691.374 1410.13 701 1422 701V698C1411.78 698 1403.5 689.717 1403.5 679.5H1400.5Z" fill="black"/>
<path d="M1401.5 958C1398.99 958 1396.99 959.872 1396.99 962.212C1396.99 964.552 1398.99 966.424 1401.5 966.424C1404 966.424 1406 964.552 1406 962.212C1406 959.872 1404 958 1401.5 958Z" fill="white"/>
<path d="M770.939 1168.94C770.354 1169.53 770.354 1170.47 770.939 1171.06L780.485 1180.61C781.071 1181.19 782.021 1181.19 782.607 1180.61C783.192 1180.02 783.192 1179.07 782.607 1178.49L774.121 1170L782.607 1161.51C783.192 1160.93 783.192 1159.98 782.607 1159.39C782.021 1158.81 781.071 1158.81 780.485 1159.39L770.939 1168.94ZM1398.49 962.212C1398.49 960.793 1399.73 959.5 1401.5 959.5V956.5C1398.26 956.5 1395.49 958.951 1395.49 962.212H1398.49ZM1401.5 959.5C1403.27 959.5 1404.5 960.793 1404.5 962.212H1407.5C1407.5 958.951 1404.73 956.5 1401.5 956.5V959.5ZM1404.5 962.212C1404.5 963.63 1403.27 964.924 1401.5 964.924V967.924C1404.73 967.924 1407.5 965.473 1407.5 962.212H1404.5ZM1401.5 964.924C1399.73 964.924 1398.49 963.63 1398.49 962.212H1395.49C1395.49 965.473 1398.26 967.924 1401.5 967.924V964.924ZM1396.99 960.712H1106.75V963.712H1396.99V960.712ZM1085.25 982.212V1150H1088.25V982.212H1085.25ZM1066.75 1168.5H772V1171.5H1066.75V1168.5ZM1085.25 1150C1085.25 1160.22 1076.97 1168.5 1066.75 1168.5V1171.5C1078.62 1171.5 1088.25 1161.87 1088.25 1150H1085.25ZM1106.75 960.712C1094.87 960.712 1085.25 970.338 1085.25 982.212H1088.25C1088.25 971.995 1096.53 963.712 1106.75 963.712V960.712Z" fill="black"/>
<path d="M772 1179.5C769.5 1179.5 767.5 1181.5 767.5 1184C767.5 1186.5 769.5 1188.5 772 1188.5C774.5 1188.5 776.5 1186.5 776.5 1184C776.5 1181.5 774.5 1179.5 772 1179.5Z" fill="white"/>
<path d="M2366.06 1378.06C2366.65 1377.47 2366.65 1376.53 2366.06 1375.94L2356.51 1366.39C2355.93 1365.81 2354.98 1365.81 2354.39 1366.39C2353.81 1366.98 2353.81 1367.93 2354.39 1368.51L2362.88 1377L2354.39 1385.49C2353.81 1386.07 2353.81 1387.02 2354.39 1387.61C2354.98 1388.19 2355.93 1388.19 2356.51 1387.61L2366.06 1378.06ZM769 1184C769 1182.33 770.328 1181 772 1181V1178C768.672 1178 766 1180.67 766 1184H769ZM772 1181C773.672 1181 775 1182.33 775 1184H778C778 1180.67 775.328 1178 772 1178V1181ZM775 1184C775 1185.67 773.672 1187 772 1187V1190C775.328 1190 778 1187.33 778 1184H775ZM772 1187C770.328 1187 769 1185.67 769 1184H766C766 1187.33 768.672 1190 772 1190V1187ZM776.5 1185.5H1548.5V1182.5H776.5V1185.5ZM1567 1204V1357H1570V1204H1567ZM1588.5 1378.5H2365V1375.5H1588.5V1378.5ZM1567 1357C1567 1368.87 1576.63 1378.5 1588.5 1378.5V1375.5C1578.28 1375.5 1570 1367.22 1570 1357H1567ZM1548.5 1185.5C1558.72 1185.5 1567 1193.78 1567 1204H1570C1570 1192.13 1560.37 1182.5 1548.5 1182.5V1185.5Z" fill="black"/>
<path d="M2361 1395C2358.5 1395 2356.5 1397 2356.5 1399.5C2356.5 1402 2358.5 1404 2361 1404C2363.5 1404 2365.5 1402 2365.5 1399.5C2365.5 1397 2363.5 1395 2361 1395Z" fill="white"/>
<path d="M2112.94 1726.44C2112.35 1727.03 2112.35 1727.97 2112.94 1728.56L2122.49 1738.11C2123.07 1738.69 2124.02 1738.69 2124.61 1738.11C2125.19 1737.52 2125.19 1736.57 2124.61 1735.99L2116.12 1727.5L2124.61 1719.01C2125.19 1718.43 2125.19 1717.48 2124.61 1716.89C2124.02 1716.31 2123.07 1716.31 2122.49 1716.89L2112.94 1726.44ZM2358 1399.5C2358 1397.83 2359.33 1396.5 2361 1396.5V1393.5C2357.67 1393.5 2355 1396.17 2355 1399.5H2358ZM2361 1396.5C2362.67 1396.5 2364 1397.83 2364 1399.5H2367C2367 1396.17 2364.33 1393.5 2361 1393.5V1396.5ZM2364 1399.5C2364 1401.17 2362.67 1402.5 2361 1402.5V1405.5C2364.33 1405.5 2367 1402.83 2367 1399.5H2364ZM2361 1402.5C2359.33 1402.5 2358 1401.17 2358 1399.5H2355C2355 1402.83 2357.67 1405.5 2361 1405.5V1402.5ZM2356.5 1398H2257.5V1401H2356.5V1398ZM2236 1419.5V1707.5H2239V1419.5H2236ZM2217.5 1726H2114V1729H2217.5V1726ZM2236 1707.5C2236 1717.72 2227.72 1726 2217.5 1726V1729C2229.37 1729 2239 1719.37 2239 1707.5H2236ZM2257.5 1398C2245.63 1398 2236 1407.63 2236 1419.5H2239C2239 1409.28 2247.28 1401 2257.5 1401V1398Z" fill="black"/>
<path d="M2118 1700.5C2115.5 1700.5 2113.5 1702.5 2113.5 1705C2113.5 1707.5 2115.5 1709.5 2118 1709.5C2120.5 1709.5 2122.5 1707.5 2122.5 1705C2122.5 1702.5 2120.5 1700.5 2118 1700.5Z" fill="white"/>
<path d="M2536.06 1740.06C2536.65 1739.47 2536.65 1738.53 2536.06 1737.94L2526.51 1728.39C2525.93 1727.81 2524.98 1727.81 2524.39 1728.39C2523.81 1728.98 2523.81 1729.93 2524.39 1730.51L2532.88 1739L2524.39 1747.49C2523.81 1748.07 2523.81 1749.02 2524.39 1749.61C2524.98 1750.19 2525.93 1750.19 2526.51 1749.61L2536.06 1740.06ZM2115 1705C2115 1703.33 2116.33 1702 2118 1702V1699C2114.67 1699 2112 1701.67 2112 1705H2115ZM2118 1702C2119.67 1702 2121 1703.33 2121 1705H2124C2124 1701.67 2121.33 1699 2118 1699V1702ZM2121 1705C2121 1706.67 2119.67 1708 2118 1708V1711C2121.33 1711 2124 1708.33 2124 1705H2121ZM2118 1708C2116.33 1708 2115 1706.67 2115 1705H2112C2112 1708.33 2114.67 1711 2118 1711V1708ZM2122.5 1706.5H2309.5V1703.5H2122.5V1706.5ZM2343.5 1740.5H2535V1737.5H2343.5V1740.5ZM2325 1722C2325 1732.22 2333.28 1740.5 2343.5 1740.5V1737.5C2334.94 1737.5 2328 1730.56 2328 1722H2325ZM2309.5 1706.5C2318.06 1706.5 2325 1713.44 2325 1722H2328C2328 1711.78 2319.72 1703.5 2309.5 1703.5V1706.5Z" fill="black"/>
<path d="M2685 1734.5C2682.5 1734.5 2680.5 1736.5 2680.5 1739C2680.5 1741.5 2682.5 1743.5 2685 1743.5C2687.5 1743.5 2689.5 1741.5 2689.5 1739C2689.5 1736.5 2687.5 1734.5 2685 1734.5Z" fill="white"/>
<path d="M2881.06 1483.06C2881.65 1482.47 2881.65 1481.53 2881.06 1480.94L2871.51 1471.39C2870.93 1470.81 2869.98 1470.81 2869.39 1471.39C2868.81 1471.98 2868.81 1472.93 2869.39 1473.51L2877.88 1482L2869.39 1490.49C2868.81 1491.07 2868.81 1492.02 2869.39 1492.61C2869.98 1493.19 2870.93 1493.19 2871.51 1492.61L2881.06 1483.06ZM2682 1739C2682 1737.33 2683.33 1736 2685 1736V1733C2681.67 1733 2679 1735.67 2679 1739H2682ZM2685 1736C2686.67 1736 2688 1737.33 2688 1739H2691C2691 1735.67 2688.33 1733 2685 1733V1736ZM2688 1739C2688 1740.67 2686.67 1742 2685 1742V1745C2688.33 1745 2691 1742.33 2691 1739H2688ZM2685 1742C2683.33 1742 2682 1740.67 2682 1739H2679C2679 1742.33 2681.67 1745 2685 1745V1742ZM2689.5 1740.5H2762.5V1737.5H2689.5V1740.5ZM2784 1719V1502H2781V1719H2784ZM2802.5 1483.5H2880V1480.5H2802.5V1483.5ZM2784 1502C2784 1491.78 2792.28 1483.5 2802.5 1483.5V1480.5C2790.63 1480.5 2781 1490.13 2781 1502H2784ZM2762.5 1740.5C2774.37 1740.5 2784 1730.87 2784 1719H2781C2781 1729.22 2772.72 1737.5 2762.5 1737.5V1740.5Z" fill="black"/>
<path d="M3030 1477.5C3027.5 1477.5 3025.5 1479.5 3025.5 1482C3025.5 1484.5 3027.5 1486.5 3030 1486.5C3032.5 1486.5 3034.5 1484.5 3034.5 1482C3034.5 1479.5 3032.5 1477.5 3030 1477.5Z" fill="white"/>
<path d="M3212.06 1171.06C3212.65 1170.47 3212.65 1169.53 3212.06 1168.94L3202.51 1159.39C3201.93 1158.81 3200.98 1158.81 3200.39 1159.39C3199.81 1159.98 3199.81 1160.93 3200.39 1161.51L3208.88 1170L3200.39 1178.49C3199.81 1179.07 3199.81 1180.02 3200.39 1180.61C3200.98 1181.19 3201.93 1181.19 3202.51 1180.61L3212.06 1171.06ZM3027 1482C3027 1480.33 3028.33 1479 3030 1479V1476C3026.67 1476 3024 1478.67 3024 1482H3027ZM3030 1479C3031.67 1479 3033 1480.33 3033 1482H3036C3036 1478.67 3033.33 1476 3030 1476V1479ZM3033 1482C3033 1483.67 3031.67 1485 3030 1485V1488C3033.33 1488 3036 1485.33 3036 1482H3033ZM3030 1485C3028.33 1485 3027 1483.67 3027 1482H3024C3024 1485.33 3026.67 1488 3030 1488V1485ZM3034.5 1483.5H3100.5V1480.5H3034.5V1483.5ZM3122 1462V1190H3119V1462H3122ZM3140.5 1171.5H3211V1168.5H3140.5V1171.5ZM3122 1190C3122 1179.78 3130.28 1171.5 3140.5 1171.5V1168.5C3128.63 1168.5 3119 1178.13 3119 1190H3122ZM3100.5 1483.5C3112.37 1483.5 3122 1473.87 3122 1462H3119C3119 1472.22 3110.72 1480.5 3100.5 1480.5V1483.5Z" fill="black"/>
<path d="M3030 1477.5C3027.5 1477.5 3025.5 1479.5 3025.5 1482C3025.5 1484.5 3027.5 1486.5 3030 1486.5C3032.5 1486.5 3034.5 1484.5 3034.5 1482C3034.5 1479.5 3032.5 1477.5 3030 1477.5Z" fill="white"/>
<path d="M3212.06 1740.06C3212.65 1739.47 3212.65 1738.53 3212.06 1737.94L3202.51 1728.39C3201.93 1727.81 3200.98 1727.81 3200.39 1728.39C3199.81 1728.98 3199.81 1729.93 3200.39 1730.51L3208.88 1739L3200.39 1747.49C3199.81 1748.07 3199.81 1749.02 3200.39 1749.61C3200.98 1750.19 3201.93 1750.19 3202.51 1749.61L3212.06 1740.06ZM3027 1482C3027 1480.33 3028.33 1479 3030 1479V1476C3026.67 1476 3024 1478.67 3024 1482H3027ZM3030 1479C3031.67 1479 3033 1480.33 3033 1482H3036C3036 1478.67 3033.33 1476 3030 1476V1479ZM3033 1482C3033 1483.67 3031.67 1485 3030 1485V1488C3033.33 1488 3036 1485.33 3036 1482H3033ZM3030 1485C3028.33 1485 3027 1483.67 3027 1482H3024C3024 1485.33 3026.67 1488 3030 1488V1485ZM3034.5 1483.5H3100.5V1480.5H3034.5V1483.5ZM3119 1502V1719H3122V1502H3119ZM3140.5 1740.5H3211V1737.5H3140.5V1740.5ZM3119 1719C3119 1730.87 3128.63 1740.5 3140.5 1740.5V1737.5C3130.28 1737.5 3122 1729.22 3122 1719H3119ZM3100.5 1483.5C3110.72 1483.5 3119 1491.78 3119 1502H3122C3122 1490.13 3112.37 1480.5 3100.5 1480.5V1483.5Z" fill="black"/>
<path d="M2515 1372.5C2512.5 1372.5 2510.5 1374.5 2510.5 1377C2510.5 1379.5 2512.5 1381.5 2515 1381.5C2517.5 1381.5 2519.5 1379.5 2519.5 1377C2519.5 1374.5 2517.5 1372.5 2515 1372.5Z" fill="white"/>
<path d="M2558.06 933.061C2558.65 932.475 2558.65 931.525 2558.06 930.939L2548.51 921.393C2547.93 920.808 2546.98 920.808 2546.39 921.393C2545.81 921.979 2545.81 922.929 2546.39 923.515L2554.88 932L2546.39 940.485C2545.81 941.071 2545.81 942.021 2546.39 942.607C2546.98 943.192 2547.93 943.192 2548.51 942.607L2558.06 933.061ZM2512 1377C2512 1375.33 2513.33 1374 2515 1374V1371C2511.67 1371 2509 1373.67 2509 1377H2512ZM2515 1374C2516.67 1374 2518 1375.33 2518 1377H2521C2521 1373.67 2518.33 1371 2515 1371V1374ZM2518 1377C2518 1378.67 2516.67 1380 2515 1380V1383C2518.33 1383 2521 1380.33 2521 1377H2518ZM2515 1380C2513.33 1380 2512 1378.67 2512 1377H2509C2509 1380.33 2511.67 1383 2515 1383V1380ZM2537.5 1360.5V952H2534.5V1360.5H2537.5ZM2556 933.5H2557V930.5H2556V933.5ZM2537.5 952C2537.5 941.783 2545.78 933.5 2556 933.5V930.5C2544.13 930.5 2534.5 940.126 2534.5 952H2537.5ZM2519.5 1378.5C2529.44 1378.5 2537.5 1370.44 2537.5 1360.5H2534.5C2534.5 1368.78 2527.78 1375.5 2519.5 1375.5V1378.5Z" fill="black"/>
<path d="M2831 266.5C2828.5 266.5 2826.5 268.5 2826.5 271C2826.5 273.5 2828.5 275.5 2831 275.5C2833.5 275.5 2835.5 273.5 2835.5 271C2835.5 268.5 2833.5 266.5 2831 266.5Z" fill="white"/>
<path d="M2972.06 708.061C2972.65 707.475 2972.65 706.525 2972.06 705.939L2962.51 696.393C2961.93 695.808 2960.98 695.808 2960.39 696.393C2959.81 696.979 2959.81 697.929 2960.39 698.515L2968.88 707L2960.39 715.485C2959.81 716.071 2959.81 717.021 2960.39 717.607C2960.98 718.192 2961.93 718.192 2962.51 717.607L2972.06 708.061ZM2828 271C2828 269.328 2829.33 268 2831 268V265C2827.67 265 2825 267.672 2825 271H2828ZM2831 268C2832.67 268 2834 269.328 2834 271H2837C2837 267.672 2834.33 265 2831 265V268ZM2834 271C2834 272.672 2832.67 274 2831 274V277C2834.33 277 2837 274.328 2837 271H2834ZM2831 274C2829.33 274 2828 272.672 2828 271H2825C2825 274.328 2827.67 277 2831 277V274ZM2835.5 272.5H2881V269.5H2835.5V272.5ZM2899.5 291V687H2902.5V291H2899.5ZM2921 708.5H2971V705.5H2921V708.5ZM2899.5 687C2899.5 698.874 2909.13 708.5 2921 708.5V705.5C2910.78 705.5 2902.5 697.217 2902.5 687H2899.5ZM2881 272.5C2891.22 272.5 2899.5 280.783 2899.5 291H2902.5C2902.5 279.126 2892.87 269.5 2881 269.5V272.5Z" fill="black"/>
<path d="M3239 354.5C3236.5 354.5 3234.5 356.5 3234.5 359C3234.5 361.5 3236.5 363.5 3239 363.5C3241.5 363.5 3243.5 361.5 3243.5 359C3243.5 356.5 3241.5 354.5 3239 354.5Z" fill="white"/>
<path d="M3284.94 1096.06C3285.53 1096.65 3286.47 1096.65 3287.06 1096.06L3296.61 1086.51C3297.19 1085.93 3297.19 1084.98 3296.61 1084.39C3296.02 1083.81 3295.07 1083.81 3294.49 1084.39L3286 1092.88L3277.51 1084.39C3276.93 1083.81 3275.98 1083.81 3275.39 1084.39C3274.81 1084.98 3274.81 1085.93 3275.39 1086.51L3284.94 1096.06ZM3236 359C3236 357.328 3237.33 356 3239 356V353C3235.67 353 3233 355.672 3233 359H3236ZM3239 356C3240.67 356 3242 357.328 3242 359H3245C3245 355.672 3242.33 353 3239 353V356ZM3242 359C3242 360.672 3240.67 362 3239 362V365C3242.33 365 3245 362.328 3245 359H3242ZM3239 362C3237.33 362 3236 360.672 3236 359H3233C3233 362.328 3235.67 365 3239 365V362ZM3237.5 363.5V707H3240.5V363.5H3237.5ZM3259 728.5H3266V725.5H3259V728.5ZM3284.5 747V1095H3287.5V747H3284.5ZM3266 728.5C3276.22 728.5 3284.5 736.783 3284.5 747H3287.5C3287.5 735.126 3277.87 725.5 3266 725.5V728.5ZM3237.5 707C3237.5 718.874 3247.13 728.5 3259 728.5V725.5C3248.78 725.5 3240.5 717.217 3240.5 707H3237.5Z" fill="black"/>
<path d="M1551 957.5C1548.5 957.5 1546.5 959.5 1546.5 962C1546.5 964.5 1548.5 966.5 1551 966.5C1553.5 966.5 1555.5 964.5 1555.5 962C1555.5 959.5 1553.5 957.5 1551 957.5Z" fill="white"/>
<path d="M1894.06 1215.06C1894.65 1214.47 1894.65 1213.53 1894.06 1212.94L1884.51 1203.39C1883.93 1202.81 1882.98 1202.81 1882.39 1203.39C1881.81 1203.98 1881.81 1204.93 1882.39 1205.51L1890.88 1214L1882.39 1222.49C1881.81 1223.07 1881.81 1224.02 1882.39 1224.61C1882.98 1225.19 1883.93 1225.19 1884.51 1224.61L1894.06 1215.06ZM1548 962C1548 960.328 1549.33 959 1551 959V956C1547.67 956 1545 958.672 1545 962H1548ZM1551 959C1552.67 959 1554 960.328 1554 962H1557C1557 958.672 1554.33 956 1551 956V959ZM1554 962C1554 963.672 1552.67 965 1551 965V968C1554.33 968 1557 965.328 1557 962H1554ZM1551 965C1549.33 965 1548 963.672 1548 962H1545C1545 965.328 1547.67 968 1551 968V965ZM1555.5 963.5H1702V960.5H1555.5V963.5ZM1720.5 982V1194H1723.5V982H1720.5ZM1742 1215.5H1893V1212.5H1742V1215.5ZM1720.5 1194C1720.5 1205.87 1730.13 1215.5 1742 1215.5V1212.5C1731.78 1212.5 1723.5 1204.22 1723.5 1194H1720.5ZM1702 963.5C1712.22 963.5 1720.5 971.783 1720.5 982H1723.5C1723.5 970.126 1713.87 960.5 1702 960.5V963.5Z" fill="black"/>
<path d="M2043 1209.5C2040.5 1209.5 2038.5 1211.5 2038.5 1214C2038.5 1216.5 2040.5 1218.5 2043 1218.5C2045.5 1218.5 2047.5 1216.5 2047.5 1214C2047.5 1211.5 2045.5 1209.5 2043 1209.5Z" fill="white"/>
<path d="M2148.06 721.061C2148.65 720.475 2148.65 719.525 2148.06 718.939L2138.51 709.393C2137.93 708.808 2136.98 708.808 2136.39 709.393C2135.81 709.979 2135.81 710.929 2136.39 711.515L2144.88 720L2136.39 728.485C2135.81 729.071 2135.81 730.021 2136.39 730.607C2136.98 731.192 2137.93 731.192 2138.51 730.607L2148.06 721.061ZM2040 1214C2040 1212.33 2041.33 1211 2043 1211V1208C2039.67 1208 2037 1210.67 2037 1214H2040ZM2043 1211C2044.67 1211 2046 1212.33 2046 1214H2049C2049 1210.67 2046.33 1208 2043 1208V1211ZM2046 1214C2046 1215.67 2044.67 1217 2043 1217V1220C2046.33 1220 2049 1217.33 2049 1214H2046ZM2043 1217C2041.33 1217 2040 1215.67 2040 1214H2037C2037 1217.33 2039.67 1220 2043 1220V1217ZM2047.5 1215.5H2075V1212.5H2047.5V1215.5ZM2096.5 1194V740H2093.5V1194H2096.5ZM2115 721.5H2147V718.5H2115V721.5ZM2096.5 740C2096.5 729.783 2104.78 721.5 2115 721.5V718.5C2103.13 718.5 2093.5 728.126 2093.5 740H2096.5ZM2075 1215.5C2086.87 1215.5 2096.5 1205.87 2096.5 1194H2093.5C2093.5 1204.22 2085.22 1212.5 2075 1212.5V1215.5Z" fill="black"/>
<path d="M2297 715.5C2294.5 715.5 2292.5 717.5 2292.5 720C2292.5 722.5 2294.5 724.5 2297 724.5C2299.5 724.5 2301.5 722.5 2301.5 720C2301.5 717.5 2299.5 715.5 2297 715.5Z" fill="white"/>
<path d="M2682.06 272.061C2682.65 271.475 2682.65 270.525 2682.06 269.939L2672.51 260.393C2671.93 259.808 2670.98 259.808 2670.39 260.393C2669.81 260.979 2669.81 261.929 2670.39 262.515L2678.88 271L2670.39 279.485C2669.81 280.071 2669.81 281.021 2670.39 281.607C2670.98 282.192 2671.93 282.192 2672.51 281.607L2682.06 272.061ZM2294 720C2294 718.328 2295.33 717 2297 717V714C2293.67 714 2291 716.672 2291 720H2294ZM2297 717C2298.67 717 2300 718.328 2300 720H2303C2303 716.672 2300.33 714 2297 714V717ZM2300 720C2300 721.672 2298.67 723 2297 723V726C2300.33 726 2303 723.328 2303 720H2300ZM2297 723C2295.33 723 2294 721.672 2294 720H2291C2291 723.328 2293.67 726 2297 726V723ZM2301.5 721.5H2469V718.5H2301.5V721.5ZM2490.5 700V291H2487.5V700H2490.5ZM2509 272.5H2681V269.5H2509V272.5ZM2490.5 291C2490.5 280.783 2498.78 272.5 2509 272.5V269.5C2497.13 269.5 2487.5 279.126 2487.5 291H2490.5ZM2469 721.5C2480.87 721.5 2490.5 711.874 2490.5 700H2487.5C2487.5 710.217 2479.22 718.5 2469 718.5V721.5Z" fill="black"/>
<path d="M1251.5 1428C1249 1428 1247 1430 1247 1432.5C1247 1435 1249 1437 1251.5 1437C1254 1437 1256 1435 1256 1432.5C1256 1430 1254 1428 1251.5 1428Z" fill="white"/>
<path d="M1969.56 1686.56C1970.15 1685.97 1970.15 1685.03 1969.56 1684.44L1960.01 1674.89C1959.43 1674.31 1958.48 1674.31 1957.89 1674.89C1957.31 1675.48 1957.31 1676.43 1957.89 1677.01L1966.38 1685.5L1957.89 1693.99C1957.31 1694.57 1957.31 1695.52 1957.89 1696.11C1958.48 1696.69 1959.43 1696.69 1960.01 1696.11L1969.56 1686.56ZM1248.5 1432.5C1248.5 1430.83 1249.83 1429.5 1251.5 1429.5V1426.5C1248.17 1426.5 1245.5 1429.17 1245.5 1432.5H1248.5ZM1251.5 1429.5C1253.17 1429.5 1254.5 1430.83 1254.5 1432.5H1257.5C1257.5 1429.17 1254.83 1426.5 1251.5 1426.5V1429.5ZM1254.5 1432.5C1254.5 1434.17 1253.17 1435.5 1251.5 1435.5V1438.5C1254.83 1438.5 1257.5 1435.83 1257.5 1432.5H1254.5ZM1251.5 1435.5C1249.83 1435.5 1248.5 1434.17 1248.5 1432.5H1245.5C1245.5 1435.83 1248.17 1438.5 1251.5 1438.5V1435.5ZM1256 1434H1590V1431H1256V1434ZM1608.5 1452.5V1665.5H1611.5V1452.5H1608.5ZM1630 1687H1968.5V1684H1630V1687ZM1608.5 1665.5C1608.5 1677.37 1618.13 1687 1630 1687V1684C1619.78 1684 1611.5 1675.72 1611.5 1665.5H1608.5ZM1590 1434C1600.22 1434 1608.5 1442.28 1608.5 1452.5H1611.5C1611.5 1440.63 1601.87 1431 1590 1431V1434Z" fill="black"/>
<path d="M1968 1700.5C1965.5 1700.5 1963.5 1702.5 1963.5 1705C1963.5 1707.5 1965.5 1709.5 1968 1709.5C1970.5 1709.5 1972.5 1707.5 1972.5 1705C1972.5 1702.5 1970.5 1700.5 1968 1700.5Z" fill="white"/>
<path d="M1549.94 1748.94C1549.35 1749.53 1549.35 1750.47 1549.94 1751.06L1559.49 1760.61C1560.07 1761.19 1561.02 1761.19 1561.61 1760.61C1562.19 1760.02 1562.19 1759.07 1561.61 1758.49L1553.12 1750L1561.61 1741.51C1562.19 1740.93 1562.19 1739.98 1561.61 1739.39C1561.02 1738.81 1560.07 1738.81 1559.49 1739.39L1549.94 1748.94ZM1965 1705C1965 1703.33 1966.33 1702 1968 1702V1699C1964.67 1699 1962 1701.67 1962 1705H1965ZM1968 1702C1969.67 1702 1971 1703.33 1971 1705H1974C1974 1701.67 1971.33 1699 1968 1699V1702ZM1971 1705C1971 1706.67 1969.67 1708 1968 1708V1711C1971.33 1711 1974 1708.33 1974 1705H1971ZM1968 1708C1966.33 1708 1965 1706.67 1965 1705H1962C1962 1708.33 1964.67 1711 1968 1711V1708ZM1963.5 1703.5H1779.5V1706.5H1963.5V1703.5ZM1758 1725V1730H1761V1725H1758ZM1739.5 1748.5H1551V1751.5H1739.5V1748.5ZM1758 1730C1758 1740.22 1749.72 1748.5 1739.5 1748.5V1751.5C1751.37 1751.5 1761 1741.87 1761 1730H1758ZM1779.5 1703.5C1767.63 1703.5 1758 1713.13 1758 1725H1761C1761 1714.78 1769.28 1706.5 1779.5 1706.5V1703.5Z" fill="black"/>
<path d="M1401 1745.5C1398.5 1745.5 1396.5 1747.5 1396.5 1750C1396.5 1752.5 1398.5 1754.5 1401 1754.5C1403.5 1754.5 1405.5 1752.5 1405.5 1750C1405.5 1747.5 1403.5 1745.5 1401 1745.5Z" fill="white"/>
<path d="M664.939 1748.94C664.354 1749.53 664.354 1750.47 664.939 1751.06L674.485 1760.61C675.071 1761.19 676.021 1761.19 676.607 1760.61C677.192 1760.02 677.192 1759.07 676.607 1758.49L668.121 1750L676.607 1741.51C677.192 1740.93 677.192 1739.98 676.607 1739.39C676.021 1738.81 675.071 1738.81 674.485 1739.39L664.939 1748.94ZM1398 1750C1398 1748.33 1399.33 1747 1401 1747V1744C1397.67 1744 1395 1746.67 1395 1750H1398ZM1401 1747C1402.67 1747 1404 1748.33 1404 1750H1407C1407 1746.67 1404.33 1744 1401 1744V1747ZM1404 1750C1404 1751.67 1402.67 1753 1401 1753V1756C1404.33 1756 1407 1753.33 1407 1750H1404ZM1401 1753C1399.33 1753 1398 1751.67 1398 1750H1395C1395 1753.33 1397.67 1756 1401 1756V1753ZM1396.5 1748.5H666V1751.5H1396.5V1748.5Z" fill="black"/>
<path d="M283 1315.5C280.5 1315.5 278.5 1317.5 278.5 1320C278.5 1322.5 280.5 1324.5 283 1324.5C285.5 1324.5 287.5 1322.5 287.5 1320C287.5 1317.5 285.5 1315.5 283 1315.5Z" fill="white"/>
<path d="M1102.06 1453.06C1102.65 1452.47 1102.65 1451.53 1102.06 1450.94L1092.51 1441.39C1091.93 1440.81 1090.98 1440.81 1090.39 1441.39C1089.81 1441.98 1089.81 1442.93 1090.39 1443.51L1098.88 1452L1090.39 1460.49C1089.81 1461.07 1089.81 1462.02 1090.39 1462.61C1090.98 1463.19 1091.93 1463.19 1092.51 1462.61L1102.06 1453.06ZM280 1320C280 1318.33 281.328 1317 283 1317V1314C279.672 1314 277 1316.67 277 1320H280ZM283 1317C284.672 1317 286 1318.33 286 1320H289C289 1316.67 286.328 1314 283 1314V1317ZM286 1320C286 1321.67 284.672 1323 283 1323V1326C286.328 1326 289 1323.33 289 1320H286ZM283 1323C281.328 1323 280 1321.67 280 1320H277C277 1323.33 279.672 1326 283 1326V1323ZM287.5 1321.5H672V1318.5H287.5V1321.5ZM690.5 1340V1432H693.5V1340H690.5ZM712 1453.5H1101V1450.5H712V1453.5ZM690.5 1432C690.5 1443.87 700.126 1453.5 712 1453.5V1450.5C701.783 1450.5 693.5 1442.22 693.5 1432H690.5ZM672 1321.5C682.217 1321.5 690.5 1329.78 690.5 1340H693.5C693.5 1328.13 683.874 1318.5 672 1318.5V1321.5Z" fill="black"/>
<path d="M209 1596.5C206.5 1596.5 204.5 1598.5 204.5 1601C204.5 1603.5 206.5 1605.5 209 1605.5C211.5 1605.5 213.5 1603.5 213.5 1601C213.5 1598.5 211.5 1596.5 209 1596.5Z" fill="white"/>
<path d="M209.061 1393.94C208.475 1393.35 207.525 1393.35 206.939 1393.94L197.393 1403.49C196.808 1404.07 196.808 1405.02 197.393 1405.61C197.979 1406.19 198.929 1406.19 199.515 1405.61L208 1397.12L216.485 1405.61C217.071 1406.19 218.021 1406.19 218.607 1405.61C219.192 1405.02 219.192 1404.07 218.607 1403.49L209.061 1393.94ZM206 1601C206 1599.33 207.328 1598 209 1598V1595C205.672 1595 203 1597.67 203 1601H206ZM209 1598C210.672 1598 212 1599.33 212 1601H215C215 1597.67 212.328 1595 209 1595V1598ZM212 1601C212 1602.67 210.672 1604 209 1604V1607C212.328 1607 215 1604.33 215 1601H212ZM209 1604C207.328 1604 206 1602.67 206 1601H203C203 1604.33 205.672 1607 209 1607V1604ZM210.5 1596.5V1498.5H207.5V1596.5H210.5ZM209.5 1497.5V1395H206.5V1497.5H209.5ZM208.5 1496.5C209.052 1496.5 209.5 1496.95 209.5 1497.5H206.5C206.5 1498.6 207.395 1499.5 208.5 1499.5V1496.5ZM210.5 1498.5C210.5 1497.4 209.605 1496.5 208.5 1496.5V1499.5C207.948 1499.5 207.5 1499.05 207.5 1498.5H210.5Z" fill="black"/>
<path d="M1893.49 249C1891 249 1889 250.943 1889 253.371C1889 255.8 1891 257.742 1893.49 257.742C1895.99 257.742 1897.98 255.8 1897.98 253.371C1897.98 250.943 1895.99 249 1893.49 249Z" fill="white"/>
<path d="M2148.06 708.061C2148.65 707.475 2148.65 706.525 2148.06 705.939L2138.51 696.393C2137.93 695.808 2136.98 695.808 2136.39 696.393C2135.81 696.979 2135.81 697.929 2136.39 698.515L2144.88 707L2136.39 715.485C2135.81 716.071 2135.81 717.021 2136.39 717.607C2136.98 718.192 2137.93 718.192 2138.51 717.607L2148.06 708.061ZM1890.5 253.371C1890.5 251.809 1891.79 250.5 1893.49 250.5V247.5C1890.21 247.5 1887.5 250.076 1887.5 253.371H1890.5ZM1893.49 250.5C1895.2 250.5 1896.48 251.809 1896.48 253.371H1899.48C1899.48 250.076 1896.78 247.5 1893.49 247.5V250.5ZM1896.48 253.371C1896.48 254.933 1895.2 256.242 1893.49 256.242V259.242C1896.78 259.242 1899.48 256.666 1899.48 253.371H1896.48ZM1893.49 256.242C1891.79 256.242 1890.5 254.933 1890.5 253.371H1887.5C1887.5 256.666 1890.21 259.242 1893.49 259.242V256.242ZM1897.98 254.871H2000.25V251.871H1897.98V254.871ZM2018.75 273.371V687H2021.75V273.371H2018.75ZM2040.25 708.5H2147V705.5H2040.25V708.5ZM2018.75 687C2018.75 698.874 2028.37 708.5 2040.25 708.5V705.5C2030.03 705.5 2021.75 697.217 2021.75 687H2018.75ZM2000.25 254.871C2010.46 254.871 2018.75 263.154 2018.75 273.371H2021.75C2021.75 261.497 2012.12 251.871 2000.25 251.871V254.871Z" fill="black"/>
<path d="M1893 248.5C1890.5 248.5 1888.5 250.5 1888.5 253C1888.5 255.5 1890.5 257.5 1893 257.5C1895.5 257.5 1897.5 255.5 1897.5 253C1897.5 250.5 1895.5 248.5 1893 248.5Z" fill="white"/>
<path d="M2223.06 267.061C2223.65 266.475 2223.65 265.525 2223.06 264.939L2213.51 255.393C2212.93 254.808 2211.98 254.808 2211.39 255.393C2210.81 255.979 2210.81 256.929 2211.39 257.515L2219.88 266L2211.39 274.485C2210.81 275.071 2210.81 276.021 2211.39 276.607C2211.98 277.192 2212.93 277.192 2213.51 276.607L2223.06 267.061ZM1890 253C1890 251.328 1891.33 250 1893 250V247C1889.67 247 1887 249.672 1887 253H1890ZM1893 250C1894.67 250 1896 251.328 1896 253H1899C1899 249.672 1896.33 247 1893 247V250ZM1896 253C1896 254.672 1894.67 256 1893 256V259C1896.33 259 1899 256.328 1899 253H1896ZM1893 256C1891.33 256 1890 254.672 1890 253H1887C1887 256.328 1889.67 259 1893 259V256ZM1897.5 254.5H2051V251.5H1897.5V254.5ZM2064 267.5H2222V264.5H2064V267.5ZM2056 259.5C2056 263.918 2059.58 267.5 2064 267.5V264.5C2061.24 264.5 2059 262.261 2059 259.5H2056ZM2051 254.5C2053.76 254.5 2056 256.739 2056 259.5H2059C2059 255.082 2055.42 251.5 2051 251.5V254.5Z" fill="black"/>
<path d="M1477 432.5C1474.5 432.5 1472.5 434.5 1472.5 437C1472.5 439.5 1474.5 441.5 1477 441.5C1479.5 441.5 1481.5 439.5 1481.5 437C1481.5 434.5 1479.5 432.5 1477 432.5Z" fill="white"/>
<path d="M1744.06 254.061C1744.65 253.475 1744.65 252.525 1744.06 251.939L1734.51 242.393C1733.93 241.808 1732.98 241.808 1732.39 242.393C1731.81 242.979 1731.81 243.929 1732.39 244.515L1740.88 253L1732.39 261.485C1731.81 262.071 1731.81 263.021 1732.39 263.607C1732.98 264.192 1733.93 264.192 1734.51 263.607L1744.06 254.061ZM1474 437C1474 435.328 1475.33 434 1477 434V431C1473.67 431 1471 433.672 1471 437H1474ZM1477 434C1478.67 434 1480 435.328 1480 437H1483C1483 433.672 1480.33 431 1477 431V434ZM1480 437C1480 438.672 1478.67 440 1477 440V443C1480.33 443 1483 440.328 1483 437H1480ZM1477 440C1475.33 440 1474 438.672 1474 437H1471C1471 440.328 1473.67 443 1477 443V440ZM1481.5 438.5H1590V435.5H1481.5V438.5ZM1611.5 417V273H1608.5V417H1611.5ZM1630 254.5H1743V251.5H1630V254.5ZM1611.5 273C1611.5 262.783 1619.78 254.5 1630 254.5V251.5C1618.13 251.5 1608.5 261.126 1608.5 273H1611.5ZM1590 438.5C1601.87 438.5 1611.5 428.874 1611.5 417H1608.5C1608.5 427.217 1600.22 435.5 1590 435.5V438.5Z" fill="black"/>
</svg>
