<svg width="3644" height="2013" viewBox="0 0 3644 2013" fill="none" xmlns="http://www.w3.org/2000/svg">
<rect width="3644" height="2013" fill="white"/>
<circle cx="944" cy="227" r="75" fill="#8AB8FD"/>
<path d="M935.764 245V241.804L947.767 228.665C949.176 227.126 950.336 225.788 951.247 224.652C952.159 223.504 952.833 222.427 953.271 221.42C953.721 220.402 953.946 219.337 953.946 218.224C953.946 216.946 953.638 215.839 953.023 214.904C952.419 213.969 951.59 213.247 950.537 212.738C949.483 212.229 948.3 211.974 946.986 211.974C945.589 211.974 944.37 212.264 943.328 212.844C942.298 213.413 941.499 214.212 940.931 215.241C940.375 216.271 940.097 217.479 940.097 218.864H935.906C935.906 216.733 936.397 214.863 937.38 213.253C938.362 211.643 939.7 210.388 941.393 209.489C943.097 208.589 945.009 208.139 947.128 208.139C949.259 208.139 951.147 208.589 952.792 209.489C954.437 210.388 955.728 211.602 956.663 213.129C957.598 214.656 958.065 216.354 958.065 218.224C958.065 219.562 957.823 220.87 957.337 222.148C956.864 223.415 956.035 224.83 954.852 226.392C953.68 227.943 952.052 229.837 949.969 232.074L941.801 240.81V241.094H958.705V245H935.764Z" fill="black"/>
<circle cx="220" cy="266" r="75" fill="#3FD368"/>
<path d="M224.548 247.636V284H220.145V252.253H219.932L211.054 258.148V253.673L220.145 247.636H224.548Z" fill="black"/>
<circle cx="725" cy="1144" r="75" fill="#FAE950"/>
<path d="M725.051 1162.5C722.707 1162.5 720.618 1162.09 718.783 1161.29C716.96 1160.48 715.51 1159.37 714.433 1157.93C713.368 1156.49 712.788 1154.81 712.693 1152.91H717.168C717.262 1154.08 717.665 1155.09 718.375 1155.95C719.085 1156.79 720.014 1157.44 721.163 1157.9C722.311 1158.36 723.583 1158.59 724.98 1158.59C726.543 1158.59 727.928 1158.32 729.135 1157.77C730.342 1157.23 731.289 1156.47 731.976 1155.5C732.662 1154.53 733.006 1153.41 733.006 1152.13C733.006 1150.79 732.674 1149.61 732.011 1148.59C731.348 1147.56 730.378 1146.76 729.099 1146.18C727.821 1145.6 726.259 1145.31 724.412 1145.31H721.5V1141.4H724.412C725.856 1141.4 727.123 1141.14 728.212 1140.62C729.313 1140.1 730.171 1139.37 730.786 1138.42C731.414 1137.47 731.727 1136.36 731.727 1135.08C731.727 1133.85 731.455 1132.78 730.911 1131.87C730.366 1130.96 729.597 1130.25 728.602 1129.74C727.62 1129.23 726.46 1128.97 725.122 1128.97C723.867 1128.97 722.684 1129.21 721.571 1129.67C720.47 1130.12 719.571 1130.77 718.872 1131.64C718.174 1132.49 717.795 1133.52 717.736 1134.73H713.474C713.545 1132.82 714.12 1131.15 715.197 1129.72C716.274 1128.28 717.683 1127.15 719.423 1126.35C721.174 1125.54 723.098 1125.14 725.193 1125.14C727.442 1125.14 729.372 1125.59 730.982 1126.51C732.591 1127.41 733.828 1128.6 734.692 1130.08C735.557 1131.55 735.989 1133.15 735.989 1134.87C735.989 1136.92 735.45 1138.66 734.373 1140.11C733.308 1141.55 731.857 1142.55 730.023 1143.11V1143.39C732.319 1143.77 734.112 1144.75 735.403 1146.32C736.693 1147.88 737.338 1149.82 737.338 1152.13C737.338 1154.1 736.799 1155.88 735.722 1157.45C734.657 1159.02 733.201 1160.25 731.354 1161.15C729.508 1162.05 727.407 1162.5 725.051 1162.5Z" fill="black"/>
<circle cx="1312" cy="452" r="75" fill="#CF68E9"/>
<path d="M1297.91 462.543V458.92L1313.89 433.636H1316.52V439.247H1314.74L1302.67 458.352V458.636H1324.19V462.543H1297.91ZM1315.03 470V461.442V459.755V433.636H1319.22V470H1315.03Z" fill="black"/>
<circle cx="2659" cy="341" r="75" fill="#FBAD76"/>
<path d="M2644.55 322.636V359H2640.14V327.253H2639.93L2631.05 333.148V328.673L2640.14 322.636H2644.55ZM2667.08 359.497C2665.59 359.473 2664.1 359.189 2662.61 358.645C2661.11 358.1 2659.75 357.183 2658.52 355.893C2657.29 354.591 2656.3 352.833 2655.56 350.619C2654.81 348.394 2654.44 345.6 2654.44 342.239C2654.44 339.019 2654.74 336.166 2655.34 333.68C2655.95 331.183 2656.82 329.082 2657.97 327.377C2659.12 325.661 2660.5 324.359 2662.13 323.471C2663.76 322.583 2665.6 322.139 2667.65 322.139C2669.68 322.139 2671.5 322.548 2673.08 323.364C2674.68 324.169 2675.98 325.294 2676.99 326.738C2677.99 328.182 2678.65 329.845 2678.94 331.727H2674.61C2674.21 330.094 2673.42 328.738 2672.26 327.661C2671.1 326.584 2669.57 326.045 2667.65 326.045C2664.83 326.045 2662.61 327.271 2660.99 329.721C2659.38 332.171 2658.57 335.61 2658.56 340.037H2658.84C2659.5 339.031 2660.29 338.173 2661.2 337.462C2662.13 336.74 2663.14 336.184 2664.26 335.793C2665.37 335.403 2666.55 335.207 2667.79 335.207C2669.87 335.207 2671.78 335.728 2673.51 336.77C2675.24 337.8 2676.62 339.226 2677.66 341.049C2678.7 342.86 2679.23 344.938 2679.23 347.281C2679.23 349.53 2678.72 351.59 2677.72 353.46C2676.71 355.319 2675.3 356.798 2673.47 357.899C2671.66 358.988 2669.53 359.521 2667.08 359.497ZM2667.08 355.591C2668.57 355.591 2669.91 355.218 2671.09 354.472C2672.29 353.727 2673.23 352.726 2673.92 351.472C2674.61 350.217 2674.96 348.82 2674.96 347.281C2674.96 345.778 2674.63 344.411 2673.95 343.18C2673.29 341.937 2672.37 340.948 2671.2 340.214C2670.04 339.481 2668.71 339.114 2667.22 339.114C2666.1 339.114 2665.05 339.339 2664.08 339.788C2663.11 340.226 2662.26 340.83 2661.52 341.599C2660.8 342.369 2660.23 343.251 2659.82 344.245C2659.4 345.228 2659.2 346.263 2659.2 347.352C2659.2 348.796 2659.53 350.146 2660.21 351.401C2660.9 352.655 2661.83 353.667 2663.01 354.437C2664.21 355.206 2665.57 355.591 2667.08 355.591Z" fill="black"/>
<circle cx="3061" cy="1377" r="75" fill="#CF68E9"/>
<path d="M3061.62 1395.5C3058.95 1395.5 3056.67 1394.77 3054.79 1393.31C3052.91 1391.85 3051.47 1389.72 3050.47 1386.94C3049.48 1384.15 3048.98 1380.77 3048.98 1376.82C3048.98 1372.89 3049.48 1369.53 3050.47 1366.75C3051.48 1363.96 3052.92 1361.83 3054.81 1360.36C3056.7 1358.88 3058.97 1358.14 3061.62 1358.14C3064.28 1358.14 3066.54 1358.88 3068.43 1360.36C3070.32 1361.83 3071.76 1363.96 3072.76 1366.75C3073.76 1369.53 3074.27 1372.89 3074.27 1376.82C3074.27 1380.77 3073.77 1384.15 3072.78 1386.94C3071.78 1389.72 3070.34 1391.85 3068.46 1393.31C3066.58 1394.77 3064.3 1395.5 3061.62 1395.5ZM3061.62 1391.59C3064.28 1391.59 3066.34 1390.31 3067.8 1387.76C3069.27 1385.2 3070.01 1381.55 3070.01 1376.82C3070.01 1373.67 3069.67 1370.99 3068.99 1368.77C3068.33 1366.56 3067.37 1364.87 3066.12 1363.71C3064.87 1362.55 3063.38 1361.97 3061.62 1361.97C3059 1361.97 3056.94 1363.27 3055.46 1365.86C3053.98 1368.44 3053.24 1372.1 3053.24 1376.82C3053.24 1379.97 3053.58 1382.64 3054.24 1384.84C3054.9 1387.05 3055.85 1388.72 3057.1 1389.87C3058.35 1391.02 3059.86 1391.59 3061.62 1391.59Z" fill="black"/>
<circle cx="2809" cy="1770" r="75" fill="#FF6D6D"/>
<path d="M2797.55 1751.64V1788H2793.14V1756.25H2792.93L2784.05 1762.15V1757.67L2793.14 1751.64H2797.55ZM2807.15 1780.54V1776.92L2823.13 1751.64H2825.76V1757.25H2823.99L2811.91 1776.35V1776.64H2833.43V1780.54H2807.15ZM2824.27 1788V1779.44V1777.75V1751.64H2828.46V1788H2824.27Z" fill="black"/>
<circle cx="3046" cy="707" r="75" fill="#CF68E9"/>
<path d="M3045.13 727.497C3043.04 727.497 3041.17 727.083 3039.5 726.254C3037.83 725.426 3036.49 724.289 3035.49 722.845C3034.48 721.401 3033.93 719.756 3033.84 717.909H3038.1C3038.26 719.554 3039.01 720.916 3040.33 721.993C3041.67 723.058 3043.27 723.591 3045.13 723.591C3046.62 723.591 3047.95 723.242 3049.11 722.543C3050.28 721.845 3051.19 720.886 3051.86 719.667C3052.53 718.436 3052.87 717.045 3052.87 715.494C3052.87 713.908 3052.52 712.494 3051.82 711.251C3051.14 709.996 3050.19 709.008 3048.98 708.286C3047.77 707.563 3046.39 707.196 3044.84 707.185C3043.73 707.173 3042.59 707.344 3041.42 707.7C3040.25 708.043 3039.28 708.487 3038.52 709.031L3034.4 708.534L3036.61 690.636H3055.5V694.543H3040.3L3039.02 705.267H3039.23C3039.98 704.675 3040.91 704.184 3042.04 703.793C3043.16 703.403 3044.33 703.207 3045.55 703.207C3047.78 703.207 3049.76 703.74 3051.5 704.805C3053.25 705.859 3054.63 707.303 3055.62 709.138C3056.63 710.973 3057.13 713.068 3057.13 715.423C3057.13 717.743 3056.61 719.815 3055.57 721.638C3054.54 723.449 3053.12 724.881 3051.31 725.935C3049.5 726.976 3047.44 727.497 3045.13 727.497Z" fill="black"/>
<circle cx="575" cy="645" r="75" fill="#FF6D6D"/>
<path d="M574.838 663.497C573.347 663.473 571.855 663.189 570.364 662.645C568.872 662.1 567.511 661.183 566.28 659.893C565.049 658.591 564.06 656.833 563.315 654.619C562.569 652.394 562.196 649.6 562.196 646.239C562.196 643.019 562.498 640.166 563.102 637.68C563.705 635.183 564.581 633.082 565.729 631.377C566.878 629.661 568.263 628.359 569.884 627.471C571.518 626.583 573.358 626.139 575.406 626.139C577.442 626.139 579.253 626.548 580.839 627.364C582.438 628.169 583.74 629.294 584.746 630.738C585.752 632.182 586.403 633.845 586.699 635.727H582.366C581.964 634.094 581.183 632.738 580.023 631.661C578.863 630.584 577.324 630.045 575.406 630.045C572.589 630.045 570.37 631.271 568.748 633.721C567.138 636.171 566.327 639.61 566.315 644.037H566.599C567.262 643.031 568.049 642.173 568.961 641.462C569.884 640.74 570.902 640.184 572.015 639.793C573.128 639.403 574.305 639.207 575.548 639.207C577.632 639.207 579.537 639.728 581.266 640.77C582.994 641.8 584.379 643.226 585.42 645.049C586.462 646.86 586.983 648.938 586.983 651.281C586.983 653.53 586.48 655.59 585.474 657.46C584.468 659.319 583.053 660.798 581.23 661.899C579.419 662.988 577.288 663.521 574.838 663.497ZM574.838 659.591C576.33 659.591 577.667 659.218 578.851 658.472C580.046 657.727 580.987 656.726 581.674 655.472C582.372 654.217 582.722 652.82 582.722 651.281C582.722 649.778 582.384 648.411 581.71 647.18C581.047 645.937 580.129 644.948 578.957 644.214C577.797 643.481 576.472 643.114 574.98 643.114C573.856 643.114 572.808 643.339 571.837 643.788C570.867 644.226 570.014 644.83 569.281 645.599C568.558 646.369 567.99 647.251 567.576 648.245C567.162 649.228 566.955 650.263 566.955 651.352C566.955 652.796 567.292 654.146 567.967 655.401C568.653 656.655 569.588 657.667 570.772 658.437C571.968 659.206 573.323 659.591 574.838 659.591Z" fill="black"/>
<circle cx="1387" cy="1227" r="75" fill="#3FD368"/>
<path d="M1376.9 1245L1393.16 1212.83V1212.54H1374.41V1208.64H1397.71V1212.76L1381.52 1245H1376.9Z" fill="black"/>
<circle cx="425" cy="1507" r="75" fill="#CF68E9"/>
<path d="M424.412 1525.5C421.973 1525.5 419.819 1525.07 417.949 1524.2C416.09 1523.33 414.64 1522.12 413.599 1520.6C412.557 1519.06 412.042 1517.31 412.054 1515.34C412.042 1513.8 412.344 1512.38 412.96 1511.08C413.575 1509.77 414.415 1508.67 415.481 1507.79C416.558 1506.91 417.759 1506.34 419.085 1506.11V1505.89C417.345 1505.45 415.96 1504.47 414.93 1502.97C413.901 1501.45 413.392 1499.73 413.403 1497.8C413.392 1495.95 413.859 1494.3 414.806 1492.84C415.753 1491.39 417.055 1490.24 418.712 1489.4C420.381 1488.56 422.281 1488.14 424.412 1488.14C426.519 1488.14 428.401 1488.56 430.058 1489.4C431.715 1490.24 433.018 1491.39 433.964 1492.84C434.923 1494.3 435.409 1495.95 435.42 1497.8C435.409 1499.73 434.882 1501.45 433.84 1502.97C432.81 1504.47 431.443 1505.45 429.739 1505.89V1506.11C431.053 1506.34 432.236 1506.91 433.29 1507.79C434.343 1508.67 435.184 1509.77 435.811 1511.08C436.438 1512.38 436.758 1513.8 436.77 1515.34C436.758 1517.31 436.225 1519.06 435.172 1520.6C434.13 1522.12 432.68 1523.33 430.822 1524.2C428.975 1525.07 426.839 1525.5 424.412 1525.5ZM424.412 1521.59C426.057 1521.59 427.478 1521.32 428.673 1520.79C429.869 1520.26 430.792 1519.51 431.443 1518.54C432.094 1517.57 432.426 1516.43 432.438 1515.13C432.426 1513.75 432.071 1512.54 431.372 1511.49C430.674 1510.43 429.721 1509.61 428.513 1509C427.318 1508.4 425.951 1508.1 424.412 1508.1C422.861 1508.1 421.476 1508.4 420.257 1509C419.05 1509.61 418.097 1510.43 417.398 1511.49C416.712 1512.54 416.375 1513.75 416.386 1515.13C416.375 1516.43 416.688 1517.57 417.327 1518.54C417.978 1519.51 418.908 1520.26 420.115 1520.79C421.322 1521.32 422.755 1521.59 424.412 1521.59ZM424.412 1504.33C425.714 1504.33 426.868 1504.07 427.874 1503.55C428.892 1503.03 429.691 1502.3 430.271 1501.37C430.851 1500.43 431.147 1499.34 431.159 1498.08C431.147 1496.85 430.857 1495.78 430.289 1494.87C429.721 1493.95 428.934 1493.24 427.928 1492.74C426.921 1492.23 425.75 1491.97 424.412 1491.97C423.051 1491.97 421.861 1492.23 420.843 1492.74C419.825 1493.24 419.038 1493.95 418.482 1494.87C417.925 1495.78 417.653 1496.85 417.665 1498.08C417.653 1499.34 417.931 1500.43 418.499 1501.37C419.079 1502.3 419.878 1503.03 420.896 1503.55C421.914 1504.07 423.086 1504.33 424.412 1504.33Z" fill="black"/>
<circle cx="2632" cy="932" r="75" fill="#8AB8FD"/>
<path d="M2616.55 913.636V950H2612.14V918.253H2611.93L2603.05 924.148V919.673L2612.14 913.636H2616.55ZM2628.14 950L2644.41 917.827V917.543H2625.66V913.636H2648.95V917.756L2632.76 950H2628.14Z" fill="black"/>
<circle cx="2441" cy="1347" r="75" fill="#3FD368"/>
<path d="M2440.34 1328.14C2441.83 1328.15 2443.32 1328.44 2444.82 1328.99C2446.31 1329.55 2447.67 1330.47 2448.9 1331.76C2450.13 1333.04 2451.12 1334.79 2451.86 1337C2452.61 1339.21 2452.98 1341.99 2452.98 1345.33C2452.98 1348.56 2452.68 1351.43 2452.06 1353.94C2451.46 1356.44 2450.58 1358.54 2449.43 1360.26C2448.3 1361.98 2446.91 1363.28 2445.28 1364.17C2443.66 1365.05 2441.82 1365.5 2439.77 1365.5C2437.74 1365.5 2435.92 1365.09 2434.32 1364.29C2432.74 1363.47 2431.43 1362.34 2430.42 1360.9C2429.41 1359.44 2428.76 1357.76 2428.48 1355.84H2432.81C2433.2 1357.51 2433.98 1358.89 2435.14 1359.98C2436.31 1361.05 2437.86 1361.59 2439.77 1361.59C2442.58 1361.59 2444.79 1360.37 2446.41 1357.92C2448.05 1355.47 2448.86 1352 2448.86 1347.53H2448.58C2447.92 1348.52 2447.13 1349.38 2446.22 1350.1C2445.31 1350.83 2444.29 1351.38 2443.18 1351.77C2442.07 1352.16 2440.89 1352.36 2439.63 1352.36C2437.55 1352.36 2435.64 1351.84 2433.9 1350.81C2432.17 1349.77 2430.78 1348.35 2429.74 1346.53C2428.71 1344.71 2428.2 1342.63 2428.2 1340.28C2428.2 1338.06 2428.69 1336.02 2429.69 1334.18C2430.69 1332.32 2432.1 1330.84 2433.91 1329.74C2435.74 1328.64 2437.88 1328.1 2440.34 1328.14ZM2440.34 1332.05C2438.85 1332.05 2437.51 1332.42 2436.31 1333.16C2435.13 1333.9 2434.19 1334.89 2433.49 1336.15C2432.8 1337.39 2432.46 1338.77 2432.46 1340.28C2432.46 1341.8 2432.79 1343.18 2433.45 1344.42C2434.13 1345.65 2435.04 1346.63 2436.2 1347.37C2437.38 1348.09 2438.71 1348.45 2440.2 1348.45C2441.32 1348.45 2442.37 1348.23 2443.34 1347.79C2444.31 1347.34 2445.16 1346.74 2445.88 1345.97C2446.61 1345.18 2447.19 1344.3 2447.6 1343.32C2448.02 1342.33 2448.22 1341.29 2448.22 1340.21C2448.22 1338.79 2447.88 1337.46 2447.19 1336.22C2446.52 1334.98 2445.58 1333.97 2444.39 1333.2C2443.21 1332.43 2441.86 1332.05 2440.34 1332.05Z" fill="black"/>
<circle cx="1094" cy="1740" r="75" fill="#FBAD76"/>
<path d="M1082.55 1721.64V1758H1078.14V1726.25H1077.93L1069.05 1732.15V1727.67L1078.14 1721.64H1082.55ZM1104.87 1758.5C1102.19 1758.5 1099.91 1757.77 1098.03 1756.31C1096.15 1754.85 1094.71 1752.72 1093.72 1749.94C1092.72 1747.15 1092.23 1743.77 1092.23 1739.82C1092.23 1735.89 1092.72 1732.53 1093.72 1729.75C1094.72 1726.96 1096.17 1724.83 1098.05 1723.36C1099.94 1721.88 1102.22 1721.14 1104.87 1721.14C1107.52 1721.14 1109.79 1721.88 1111.67 1723.36C1113.56 1724.83 1115.01 1726.96 1116 1729.75C1117.01 1732.53 1117.51 1735.89 1117.51 1739.82C1117.51 1743.77 1117.01 1747.15 1116.02 1749.94C1115.02 1752.72 1113.59 1754.85 1111.7 1756.31C1109.82 1757.77 1107.54 1758.5 1104.87 1758.5ZM1104.87 1754.59C1107.52 1754.59 1109.58 1753.31 1111.05 1750.76C1112.51 1748.2 1113.25 1744.55 1113.25 1739.82C1113.25 1736.67 1112.91 1733.99 1112.24 1731.77C1111.57 1729.56 1110.61 1727.87 1109.36 1726.71C1108.12 1725.55 1106.62 1724.97 1104.87 1724.97C1102.24 1724.97 1100.19 1726.27 1098.71 1728.86C1097.23 1731.44 1096.49 1735.1 1096.49 1739.82C1096.49 1742.97 1096.82 1745.64 1097.48 1747.84C1098.14 1750.05 1099.1 1751.72 1100.34 1752.87C1101.59 1754.02 1103.1 1754.59 1104.87 1754.59Z" fill="black"/>
<circle cx="2222" cy="720" r="75" fill="#FF6D6D"/>
<path d="M2214.55 702.636V739H2210.14V707.253H2209.93L2201.05 713.148V708.673L2210.14 702.636H2214.55ZM2237.79 702.636V739H2233.39V707.253H2233.17L2224.3 713.148V708.673L2233.39 702.636H2237.79Z" fill="black"/>
<circle cx="1747" cy="782" r="75" fill="#FF6D6D"/>
<path d="M1736.55 763.636V800H1732.14V768.253H1731.93L1723.05 774.148V769.673L1732.14 763.636H1736.55ZM1747.01 800V796.804L1759.01 783.665C1760.42 782.126 1761.58 780.788 1762.49 779.652C1763.4 778.504 1764.08 777.427 1764.51 776.42C1764.96 775.402 1765.19 774.337 1765.19 773.224C1765.19 771.946 1764.88 770.839 1764.26 769.904C1763.66 768.969 1762.83 768.247 1761.78 767.738C1760.73 767.229 1759.54 766.974 1758.23 766.974C1756.83 766.974 1755.61 767.264 1754.57 767.844C1753.54 768.413 1752.74 769.212 1752.17 770.241C1751.62 771.271 1751.34 772.479 1751.34 773.864H1747.15C1747.15 771.733 1747.64 769.863 1748.62 768.253C1749.6 766.643 1750.94 765.388 1752.63 764.489C1754.34 763.589 1756.25 763.139 1758.37 763.139C1760.5 763.139 1762.39 763.589 1764.03 764.489C1765.68 765.388 1766.97 766.602 1767.9 768.129C1768.84 769.656 1769.31 771.354 1769.31 773.224C1769.31 774.562 1769.06 775.87 1768.58 777.148C1768.11 778.415 1767.28 779.83 1766.09 781.392C1764.92 782.943 1763.29 784.837 1761.21 787.074L1753.04 795.81V796.094H1769.95V800H1747.01Z" fill="black"/>
<circle cx="2043" cy="1657" r="75" fill="#8AB8FD"/>
<path d="M2031.55 1638.64V1675H2027.14V1643.25H2026.93L2018.05 1649.15V1644.67L2027.14 1638.64H2031.55ZM2054.29 1675.5C2051.95 1675.5 2049.86 1675.09 2048.03 1674.29C2046.2 1673.48 2044.75 1672.37 2043.68 1670.93C2042.61 1669.49 2042.03 1667.81 2041.94 1665.91H2046.41C2046.5 1667.08 2046.91 1668.09 2047.62 1668.95C2048.33 1669.79 2049.26 1670.44 2050.4 1670.9C2051.55 1671.36 2052.83 1671.59 2054.22 1671.59C2055.78 1671.59 2057.17 1671.32 2058.38 1670.77C2059.58 1670.23 2060.53 1669.47 2061.22 1668.5C2061.9 1667.53 2062.25 1666.41 2062.25 1665.13C2062.25 1663.79 2061.92 1662.61 2061.25 1661.59C2060.59 1660.56 2059.62 1659.76 2058.34 1659.18C2057.06 1658.6 2055.5 1658.31 2053.65 1658.31H2050.74V1654.4H2053.65C2055.1 1654.4 2056.36 1654.14 2057.45 1653.62C2058.55 1653.1 2059.41 1652.37 2060.03 1651.42C2060.66 1650.47 2060.97 1649.36 2060.97 1648.08C2060.97 1646.85 2060.7 1645.78 2060.15 1644.87C2059.61 1643.96 2058.84 1643.25 2057.84 1642.74C2056.86 1642.23 2055.7 1641.97 2054.36 1641.97C2053.11 1641.97 2051.93 1642.21 2050.81 1642.67C2049.71 1643.12 2048.81 1643.77 2048.11 1644.64C2047.42 1645.49 2047.04 1646.52 2046.98 1647.73H2042.72C2042.79 1645.82 2043.36 1644.15 2044.44 1642.72C2045.52 1641.28 2046.92 1640.15 2048.66 1639.35C2050.42 1638.54 2052.34 1638.14 2054.44 1638.14C2056.68 1638.14 2058.61 1638.59 2060.22 1639.51C2061.83 1640.41 2063.07 1641.6 2063.93 1643.08C2064.8 1644.55 2065.23 1646.15 2065.23 1647.87C2065.23 1649.92 2064.69 1651.66 2063.62 1653.11C2062.55 1654.55 2061.1 1655.55 2059.26 1656.11V1656.39C2061.56 1656.77 2063.35 1657.75 2064.64 1659.32C2065.94 1660.88 2066.58 1662.82 2066.58 1665.13C2066.58 1667.1 2066.04 1668.88 2064.96 1670.45C2063.9 1672.02 2062.44 1673.25 2060.6 1674.15C2058.75 1675.05 2056.65 1675.5 2054.29 1675.5Z" fill="black"/>
<circle cx="220" cy="949" r="75" fill="#8AB8FD"/>
<path d="M205.548 930.636V967H201.145V935.253H200.932L192.054 941.148V936.673L201.145 930.636H205.548ZM227.37 967.497C225.287 967.497 223.411 967.083 221.741 966.254C220.072 965.426 218.735 964.289 217.729 962.845C216.723 961.401 216.172 959.756 216.077 957.909H220.339C220.504 959.554 221.25 960.916 222.576 961.993C223.914 963.058 225.512 963.591 227.37 963.591C228.862 963.591 230.187 963.242 231.347 962.543C232.519 961.845 233.437 960.886 234.099 959.667C234.774 958.436 235.112 957.045 235.112 955.494C235.112 953.908 234.762 952.494 234.064 951.251C233.377 949.996 232.43 949.008 231.223 948.286C230.016 947.563 228.637 947.196 227.086 947.185C225.973 947.173 224.831 947.344 223.659 947.7C222.487 948.043 221.522 948.487 220.765 949.031L216.646 948.534L218.847 930.636H237.739V934.543H222.54L221.262 945.267H221.475C222.221 944.675 223.156 944.184 224.281 943.793C225.405 943.403 226.577 943.207 227.796 943.207C230.022 943.207 232.004 943.74 233.744 944.805C235.496 945.859 236.869 947.303 237.864 949.138C238.87 950.973 239.373 953.068 239.373 955.423C239.373 957.743 238.852 959.815 237.81 961.638C236.781 963.449 235.36 964.881 233.549 965.935C231.738 966.976 229.678 967.497 227.37 967.497Z" fill="black"/>
<circle cx="1822" cy="266" r="75" fill="#3FD368"/>
<path d="M1806.55 247.636V284H1802.14V252.253H1801.93L1793.05 258.148V253.673L1802.14 247.636H1806.55ZM1828.65 284.497C1826.22 284.497 1824.06 284.065 1822.19 283.201C1820.33 282.325 1818.88 281.124 1817.84 279.597C1816.8 278.058 1816.28 276.306 1816.3 274.341C1816.28 272.802 1816.59 271.382 1817.2 270.08C1817.82 268.766 1818.66 267.671 1819.72 266.795C1820.8 265.907 1822 265.345 1823.33 265.108V264.895C1821.59 264.445 1820.2 263.469 1819.17 261.965C1818.14 260.45 1817.63 258.728 1817.65 256.798C1817.63 254.952 1818.1 253.3 1819.05 251.844C1820 250.388 1821.3 249.24 1822.95 248.4C1824.62 247.559 1826.52 247.139 1828.65 247.139C1830.76 247.139 1832.64 247.559 1834.3 248.4C1835.96 249.24 1837.26 250.388 1838.21 251.844C1839.17 253.3 1839.65 254.952 1839.66 256.798C1839.65 258.728 1839.12 260.45 1838.08 261.965C1837.05 263.469 1835.69 264.445 1833.98 264.895V265.108C1835.29 265.345 1836.48 265.907 1837.53 266.795C1838.59 267.671 1839.43 268.766 1840.05 270.08C1840.68 271.382 1841 272.802 1841.01 274.341C1841 276.306 1840.47 278.058 1839.41 279.597C1838.37 281.124 1836.92 282.325 1835.06 283.201C1833.22 284.065 1831.08 284.497 1828.65 284.497ZM1828.65 280.591C1830.3 280.591 1831.72 280.325 1832.92 279.792C1834.11 279.259 1835.03 278.508 1835.69 277.537C1836.34 276.566 1836.67 275.43 1836.68 274.128C1836.67 272.755 1836.31 271.541 1835.61 270.488C1834.92 269.434 1833.96 268.606 1832.76 268.002C1831.56 267.398 1830.19 267.097 1828.65 267.097C1827.1 267.097 1825.72 267.398 1824.5 268.002C1823.29 268.606 1822.34 269.434 1821.64 270.488C1820.95 271.541 1820.62 272.755 1820.63 274.128C1820.62 275.43 1820.93 276.566 1821.57 277.537C1822.22 278.508 1823.15 279.259 1824.36 279.792C1825.56 280.325 1827 280.591 1828.65 280.591ZM1828.65 263.332C1829.96 263.332 1831.11 263.072 1832.12 262.551C1833.13 262.03 1833.93 261.302 1834.51 260.367C1835.09 259.432 1835.39 258.337 1835.4 257.082C1835.39 255.851 1835.1 254.78 1834.53 253.869C1833.96 252.945 1833.18 252.235 1832.17 251.738C1831.16 251.229 1829.99 250.974 1828.65 250.974C1827.29 250.974 1826.1 251.229 1825.09 251.738C1824.07 252.235 1823.28 252.945 1822.72 253.869C1822.17 254.78 1821.9 255.851 1821.91 257.082C1821.9 258.337 1822.17 259.432 1822.74 260.367C1823.32 261.302 1824.12 262.03 1825.14 262.551C1826.16 263.072 1827.33 263.332 1828.65 263.332Z" fill="black"/>
<path d="M295 261.5C292.5 261.5 290.5 263.5 290.5 266C290.5 268.5 292.5 270.5 295 270.5C297.5 270.5 299.5 268.5 299.5 266C299.5 263.5 297.5 261.5 295 261.5Z" fill="white"/>
<path d="M870.061 228.061C870.646 227.475 870.646 226.525 870.061 225.939L860.515 216.393C859.929 215.808 858.979 215.808 858.393 216.393C857.808 216.979 857.808 217.929 858.393 218.515L866.879 227L858.393 235.485C857.808 236.071 857.808 237.021 858.393 237.607C858.979 238.192 859.929 238.192 860.515 237.607L870.061 228.061ZM292 266C292 264.328 293.328 263 295 263V260C291.672 260 289 262.672 289 266H292ZM295 263C296.672 263 298 264.328 298 266H301C301 262.672 298.328 260 295 260V263ZM298 266C298 267.672 296.672 269 295 269V272C298.328 272 301 269.328 301 266H298ZM295 269C293.328 269 292 267.672 292 266H289C289 269.328 291.672 272 295 272V269ZM299.5 267.5H562.5V264.5H299.5V267.5ZM601.5 228.5H869V225.5H601.5V228.5ZM583.5 246.5C583.5 236.559 591.559 228.5 601.5 228.5V225.5C589.902 225.5 580.5 234.902 580.5 246.5H583.5ZM562.5 267.5C574.098 267.5 583.5 258.098 583.5 246.5H580.5C580.5 256.441 572.441 264.5 562.5 264.5V267.5Z" fill="black"/>
<path d="M295 261.5C292.5 261.5 290.5 263.5 290.5 266C290.5 268.5 292.5 270.5 295 270.5C297.5 270.5 299.5 268.5 299.5 266C299.5 263.5 297.5 261.5 295 261.5Z" fill="white"/>
<path d="M501.061 646.061C501.646 645.475 501.646 644.525 501.061 643.939L491.515 634.393C490.929 633.808 489.979 633.808 489.393 634.393C488.808 634.979 488.808 635.929 489.393 636.515L497.879 645L489.393 653.485C488.808 654.071 488.808 655.021 489.393 655.607C489.979 656.192 490.929 656.192 491.515 655.607L501.061 646.061ZM292 266C292 264.328 293.328 263 295 263V260C291.672 260 289 262.672 289 266H292ZM295 263C296.672 263 298 264.328 298 266H301C301 262.672 298.328 260 295 260V263ZM298 266C298 267.672 296.672 269 295 269V272C298.328 272 301 269.328 301 266H298ZM295 269C293.328 269 292 267.672 292 266H289C289 269.328 291.672 272 295 272V269ZM299.5 267.5H377.5V264.5H299.5V267.5ZM396 286V625H399V286H396ZM417.5 646.5H500V643.5H417.5V646.5ZM396 625C396 636.874 405.626 646.5 417.5 646.5V643.5C407.283 643.5 399 635.217 399 625H396ZM377.5 267.5C387.717 267.5 396 275.783 396 286H399C399 274.126 389.374 264.5 377.5 264.5V267.5Z" fill="black"/>
<path d="M220 336.5C217.5 336.5 215.5 338.5 215.5 341C215.5 343.5 217.5 345.5 220 345.5C222.5 345.5 224.5 343.5 224.5 341C224.5 338.5 222.5 336.5 220 336.5Z" fill="white"/>
<path d="M218.939 875.061C219.525 875.646 220.475 875.646 221.061 875.061L230.607 865.515C231.192 864.929 231.192 863.979 230.607 863.393C230.021 862.808 229.071 862.808 228.485 863.393L220 871.879L211.515 863.393C210.929 862.808 209.979 862.808 209.393 863.393C208.808 863.979 208.808 864.929 209.393 865.515L218.939 875.061ZM217 341C217 339.328 218.328 338 220 338V335C216.672 335 214 337.672 214 341H217ZM220 338C221.672 338 223 339.328 223 341H226C226 337.672 223.328 335 220 335V338ZM223 341C223 342.672 221.672 344 220 344V347C223.328 347 226 344.328 226 341H223ZM220 344C218.328 344 217 342.672 217 341H214C214 344.328 216.672 347 220 347V344ZM218.5 345.5V874H221.5V345.5H218.5Z" fill="black"/>
<path d="M1019 222.5C1016.5 222.5 1014.5 224.5 1014.5 227C1014.5 229.5 1016.5 231.5 1019 231.5C1021.5 231.5 1023.5 229.5 1023.5 227C1023.5 224.5 1021.5 222.5 1019 222.5Z" fill="white"/>
<path d="M1238.06 453.061C1238.65 452.475 1238.65 451.525 1238.06 450.939L1228.51 441.393C1227.93 440.808 1226.98 440.808 1226.39 441.393C1225.81 441.979 1225.81 442.929 1226.39 443.515L1234.88 452L1226.39 460.485C1225.81 461.071 1225.81 462.021 1226.39 462.607C1226.98 463.192 1227.93 463.192 1228.51 462.607L1238.06 453.061ZM1016 227C1016 225.328 1017.33 224 1019 224V221C1015.67 221 1013 223.672 1013 227H1016ZM1019 224C1020.67 224 1022 225.328 1022 227H1025C1025 223.672 1022.33 221 1019 221V224ZM1022 227C1022 228.672 1020.67 230 1019 230V233C1022.33 233 1025 230.328 1025 227H1022ZM1019 230C1017.33 230 1016 228.672 1016 227H1013C1013 230.328 1015.67 233 1019 233V230ZM1023.5 228.5H1108V225.5H1023.5V228.5ZM1126.5 247V432H1129.5V247H1126.5ZM1148 453.5H1237V450.5H1148V453.5ZM1126.5 432C1126.5 443.874 1136.13 453.5 1148 453.5V450.5C1137.78 450.5 1129.5 442.217 1129.5 432H1126.5ZM1108 228.5C1118.22 228.5 1126.5 236.783 1126.5 247H1129.5C1129.5 235.126 1119.87 225.5 1108 225.5V228.5Z" fill="black"/>
<path d="M1312 522.5C1309.5 522.5 1307.5 524.5 1307.5 527C1307.5 529.5 1309.5 531.5 1312 531.5C1314.5 531.5 1316.5 529.5 1316.5 527C1316.5 524.5 1314.5 522.5 1312 522.5Z" fill="white"/>
<path d="M1385.94 1153.06C1386.53 1153.65 1387.47 1153.65 1388.06 1153.06L1397.61 1143.51C1398.19 1142.93 1398.19 1141.98 1397.61 1141.39C1397.02 1140.81 1396.07 1140.81 1395.49 1141.39L1387 1149.88L1378.51 1141.39C1377.93 1140.81 1376.98 1140.81 1376.39 1141.39C1375.81 1141.98 1375.81 1142.93 1376.39 1143.51L1385.94 1153.06ZM1309 527C1309 525.328 1310.33 524 1312 524V521C1308.67 521 1306 523.672 1306 527H1309ZM1312 524C1313.67 524 1315 525.328 1315 527H1318C1318 523.672 1315.33 521 1312 521V524ZM1315 527C1315 528.672 1313.67 530 1312 530V533C1315.33 533 1318 530.328 1318 527H1315ZM1312 530C1310.33 530 1309 528.672 1309 527H1306C1306 530.328 1308.67 533 1312 533V530ZM1310.5 531.5V819.5H1313.5V531.5H1310.5ZM1332 841H1367V838H1332V841ZM1385.5 859.5V1152H1388.5V859.5H1385.5ZM1367 841C1377.22 841 1385.5 849.283 1385.5 859.5H1388.5C1388.5 847.626 1378.87 838 1367 838V841ZM1310.5 819.5C1310.5 831.374 1320.13 841 1332 841V838C1321.78 838 1313.5 829.717 1313.5 819.5H1310.5Z" fill="black"/>
<path d="M1387 447.5C1384.5 447.5 1382.5 449.5 1382.5 452C1382.5 454.5 1384.5 456.5 1387 456.5C1389.5 456.5 1391.5 454.5 1391.5 452C1391.5 449.5 1389.5 447.5 1387 447.5Z" fill="white"/>
<path d="M1748.06 267.061C1748.65 266.475 1748.65 265.525 1748.06 264.939L1738.51 255.393C1737.93 254.808 1736.98 254.808 1736.39 255.393C1735.81 255.979 1735.81 256.929 1736.39 257.515L1744.88 266L1736.39 274.485C1735.81 275.071 1735.81 276.021 1736.39 276.607C1736.98 277.192 1737.93 277.192 1738.51 276.607L1748.06 267.061ZM1384 452C1384 450.328 1385.33 449 1387 449V446C1383.67 446 1381 448.672 1381 452H1384ZM1387 449C1388.67 449 1390 450.328 1390 452H1393C1393 448.672 1390.33 446 1387 446V449ZM1390 452C1390 453.672 1388.67 455 1387 455V458C1390.33 458 1393 455.328 1393 452H1390ZM1387 455C1385.33 455 1384 453.672 1384 452H1381C1381 455.328 1383.67 458 1387 458V455ZM1391.5 453.5H1547V450.5H1391.5V453.5ZM1568.5 432V286H1565.5V432H1568.5ZM1587 267.5H1747V264.5H1587V267.5ZM1568.5 286C1568.5 275.783 1576.78 267.5 1587 267.5V264.5C1575.13 264.5 1565.5 274.126 1565.5 286H1568.5ZM1547 453.5C1558.87 453.5 1568.5 443.874 1568.5 432H1565.5C1565.5 442.217 1557.22 450.5 1547 450.5V453.5Z" fill="black"/>
<path d="M1897 261.5C1894.5 261.5 1892.5 263.5 1892.5 266C1892.5 268.5 1894.5 270.5 1897 270.5C1899.5 270.5 1901.5 268.5 1901.5 266C1901.5 263.5 1899.5 261.5 1897 261.5Z" fill="white"/>
<path d="M2148.06 721.061C2148.65 720.475 2148.65 719.525 2148.06 718.939L2138.51 709.393C2137.93 708.808 2136.98 708.808 2136.39 709.393C2135.81 709.979 2135.81 710.929 2136.39 711.515L2144.88 720L2136.39 728.485C2135.81 729.071 2135.81 730.021 2136.39 730.607C2136.98 731.192 2137.93 731.192 2138.51 730.607L2148.06 721.061ZM1894 266C1894 264.328 1895.33 263 1897 263V260C1893.67 260 1891 262.672 1891 266H1894ZM1897 263C1898.67 263 1900 264.328 1900 266H1903C1903 262.672 1900.33 260 1897 260V263ZM1900 266C1900 267.672 1898.67 269 1897 269V272C1900.33 272 1903 269.328 1903 266H1900ZM1897 269C1895.33 269 1894 267.672 1894 266H1891C1891 269.328 1893.67 272 1897 272V269ZM1901.5 267.5H2002V264.5H1901.5V267.5ZM2020.5 286V700H2023.5V286H2020.5ZM2042 721.5H2147V718.5H2042V721.5ZM2020.5 700C2020.5 711.874 2030.13 721.5 2042 721.5V718.5C2031.78 718.5 2023.5 710.217 2023.5 700H2020.5ZM2002 267.5C2012.22 267.5 2020.5 275.783 2020.5 286H2023.5C2023.5 274.126 2013.87 264.5 2002 264.5V267.5Z" fill="black"/>
<path d="M1462 1222.5C1459.5 1222.5 1457.5 1224.5 1457.5 1227C1457.5 1229.5 1459.5 1231.5 1462 1231.5C1464.5 1231.5 1466.5 1229.5 1466.5 1227C1466.5 1224.5 1464.5 1222.5 1462 1222.5Z" fill="white"/>
<path d="M2367.06 1348.06C2367.65 1347.47 2367.65 1346.53 2367.06 1345.94L2357.51 1336.39C2356.93 1335.81 2355.98 1335.81 2355.39 1336.39C2354.81 1336.98 2354.81 1337.93 2355.39 1338.51L2363.88 1347L2355.39 1355.49C2354.81 1356.07 2354.81 1357.02 2355.39 1357.61C2355.98 1358.19 2356.93 1358.19 2357.51 1357.61L2367.06 1348.06ZM1459 1227C1459 1225.33 1460.33 1224 1462 1224V1221C1458.67 1221 1456 1223.67 1456 1227H1459ZM1462 1224C1463.67 1224 1465 1225.33 1465 1227H1468C1468 1223.67 1465.33 1221 1462 1221V1224ZM1465 1227C1465 1228.67 1463.67 1230 1462 1230V1233C1465.33 1233 1468 1230.33 1468 1227H1465ZM1462 1230C1460.33 1230 1459 1228.67 1459 1227H1456C1456 1230.33 1458.67 1233 1462 1233V1230ZM1466.5 1228.5H1894V1225.5H1466.5V1228.5ZM1912.5 1247V1327H1915.5V1247H1912.5ZM1934 1348.5H2366V1345.5H1934V1348.5ZM1912.5 1327C1912.5 1338.87 1922.13 1348.5 1934 1348.5V1345.5C1923.78 1345.5 1915.5 1337.22 1915.5 1327H1912.5ZM1894 1228.5C1904.22 1228.5 1912.5 1236.78 1912.5 1247H1915.5C1915.5 1235.13 1905.87 1225.5 1894 1225.5V1228.5Z" fill="black"/>
<path d="M2516 1342.5C2513.5 1342.5 2511.5 1344.5 2511.5 1347C2511.5 1349.5 2513.5 1351.5 2516 1351.5C2518.5 1351.5 2520.5 1349.5 2520.5 1347C2520.5 1344.5 2518.5 1342.5 2516 1342.5Z" fill="white"/>
<path d="M2987.06 1378.06C2987.65 1377.47 2987.65 1376.53 2987.06 1375.94L2977.51 1366.39C2976.93 1365.81 2975.98 1365.81 2975.39 1366.39C2974.81 1366.98 2974.81 1367.93 2975.39 1368.51L2983.88 1377L2975.39 1385.49C2974.81 1386.07 2974.81 1387.02 2975.39 1387.61C2975.98 1388.19 2976.93 1388.19 2977.51 1387.61L2987.06 1378.06ZM2513 1347C2513 1345.33 2514.33 1344 2516 1344V1341C2512.67 1341 2510 1343.67 2510 1347H2513ZM2516 1344C2517.67 1344 2519 1345.33 2519 1347H2522C2522 1343.67 2519.33 1341 2516 1341V1344ZM2519 1347C2519 1348.67 2517.67 1350 2516 1350V1353C2519.33 1353 2522 1350.33 2522 1347H2519ZM2516 1350C2514.33 1350 2513 1348.67 2513 1347H2510C2510 1350.33 2512.67 1353 2516 1353V1350ZM2520.5 1348.5H2736V1345.5H2520.5V1348.5ZM2766 1378.5H2986V1375.5H2766V1378.5ZM2749.5 1362C2749.5 1371.11 2756.89 1378.5 2766 1378.5V1375.5C2758.54 1375.5 2752.5 1369.46 2752.5 1362H2749.5ZM2736 1348.5C2743.46 1348.5 2749.5 1354.54 2749.5 1362H2752.5C2752.5 1352.89 2745.11 1345.5 2736 1345.5V1348.5Z" fill="black"/>
<path d="M2516 1342.5C2513.5 1342.5 2511.5 1344.5 2511.5 1347C2511.5 1349.5 2513.5 1351.5 2516 1351.5C2518.5 1351.5 2520.5 1349.5 2520.5 1347C2520.5 1344.5 2518.5 1342.5 2516 1342.5Z" fill="white"/>
<path d="M2558.06 933.061C2558.65 932.475 2558.65 931.525 2558.06 930.939L2548.51 921.393C2547.93 920.808 2546.98 920.808 2546.39 921.393C2545.81 921.979 2545.81 922.929 2546.39 923.515L2554.88 932L2546.39 940.485C2545.81 941.071 2545.81 942.021 2546.39 942.607C2546.98 943.192 2547.93 943.192 2548.51 942.607L2558.06 933.061ZM2513 1347C2513 1345.33 2514.33 1344 2516 1344V1341C2512.67 1341 2510 1343.67 2510 1347H2513ZM2516 1344C2517.67 1344 2519 1345.33 2519 1347H2522C2522 1343.67 2519.33 1341 2516 1341V1344ZM2519 1347C2519 1348.67 2517.67 1350 2516 1350V1353C2519.33 1353 2522 1350.33 2522 1347H2519ZM2516 1350C2514.33 1350 2513 1348.67 2513 1347H2510C2510 1350.33 2512.67 1353 2516 1353V1350ZM2538 1331V952H2535V1331H2538ZM2556.5 933.5H2557V930.5H2556.5V933.5ZM2538 952C2538 941.783 2546.28 933.5 2556.5 933.5V930.5C2544.63 930.5 2535 940.126 2535 952H2538ZM2520.5 1348.5C2530.16 1348.5 2538 1340.66 2538 1331H2535C2535 1339.01 2528.51 1345.5 2520.5 1345.5V1348.5Z" fill="black"/>
<path d="M2707 927.5C2704.5 927.5 2702.5 929.5 2702.5 932C2702.5 934.5 2704.5 936.5 2707 936.5C2709.5 936.5 2711.5 934.5 2711.5 932C2711.5 929.5 2709.5 927.5 2707 927.5Z" fill="white"/>
<path d="M2972.06 708.061C2972.65 707.475 2972.65 706.525 2972.06 705.939L2962.51 696.393C2961.93 695.808 2960.98 695.808 2960.39 696.393C2959.81 696.979 2959.81 697.929 2960.39 698.515L2968.88 707L2960.39 715.485C2959.81 716.071 2959.81 717.021 2960.39 717.607C2960.98 718.192 2961.93 718.192 2962.51 717.607L2972.06 708.061ZM2704 932C2704 930.328 2705.33 929 2707 929V926C2703.67 926 2701 928.672 2701 932H2704ZM2707 929C2708.67 929 2710 930.328 2710 932H2713C2713 928.672 2710.33 926 2707 926V929ZM2710 932C2710 933.672 2708.67 935 2707 935V938C2710.33 938 2713 935.328 2713 932H2710ZM2707 935C2705.33 935 2704 933.672 2704 932H2701C2701 935.328 2703.67 938 2707 938V935ZM2711.5 933.5H2819V930.5H2711.5V933.5ZM2840.5 912V727H2837.5V912H2840.5ZM2859 708.5H2971V705.5H2859V708.5ZM2840.5 727C2840.5 716.783 2848.78 708.5 2859 708.5V705.5C2847.13 705.5 2837.5 715.126 2837.5 727H2840.5ZM2819 933.5C2830.87 933.5 2840.5 923.874 2840.5 912H2837.5C2837.5 922.217 2829.22 930.5 2819 930.5V933.5Z" fill="black"/>
<path d="M2297 715.5C2294.5 715.5 2292.5 717.5 2292.5 720C2292.5 722.5 2294.5 724.5 2297 724.5C2299.5 724.5 2301.5 722.5 2301.5 720C2301.5 717.5 2299.5 715.5 2297 715.5Z" fill="white"/>
<path d="M2585.06 342.061C2585.65 341.475 2585.65 340.525 2585.06 339.939L2575.51 330.393C2574.93 329.808 2573.98 329.808 2573.39 330.393C2572.81 330.979 2572.81 331.929 2573.39 332.515L2581.88 341L2573.39 349.485C2572.81 350.071 2572.81 351.021 2573.39 351.607C2573.98 352.192 2574.93 352.192 2575.51 351.607L2585.06 342.061ZM2294 720C2294 718.328 2295.33 717 2297 717V714C2293.67 714 2291 716.672 2291 720H2294ZM2297 717C2298.67 717 2300 718.328 2300 720H2303C2303 716.672 2300.33 714 2297 714V717ZM2300 720C2300 721.672 2298.67 723 2297 723V726C2300.33 726 2303 723.328 2303 720H2300ZM2297 723C2295.33 723 2294 721.672 2294 720H2291C2291 723.328 2293.67 726 2297 726V723ZM2301.5 721.5H2420.5V718.5H2301.5V721.5ZM2442 700V361H2439V700H2442ZM2460.5 342.5H2584V339.5H2460.5V342.5ZM2442 361C2442 350.783 2450.28 342.5 2460.5 342.5V339.5C2448.63 339.5 2439 349.126 2439 361H2442ZM2420.5 721.5C2432.37 721.5 2442 711.874 2442 700H2439C2439 710.217 2430.72 718.5 2420.5 718.5V721.5Z" fill="black"/>
<path d="M2734 336.5C2731.5 336.5 2729.5 338.5 2729.5 341C2729.5 343.5 2731.5 345.5 2734 345.5C2736.5 345.5 2738.5 343.5 2738.5 341C2738.5 338.5 2736.5 336.5 2734 336.5Z" fill="white"/>
<path d="M2972.06 708.061C2972.65 707.475 2972.65 706.525 2972.06 705.939L2962.51 696.393C2961.93 695.808 2960.98 695.808 2960.39 696.393C2959.81 696.979 2959.81 697.929 2960.39 698.515L2968.88 707L2960.39 715.485C2959.81 716.071 2959.81 717.021 2960.39 717.607C2960.98 718.192 2961.93 718.192 2962.51 717.607L2972.06 708.061ZM2731 341C2731 339.328 2732.33 338 2734 338V335C2730.67 335 2728 337.672 2728 341H2731ZM2734 338C2735.67 338 2737 339.328 2737 341H2740C2740 337.672 2737.33 335 2734 335V338ZM2737 341C2737 342.672 2735.67 344 2734 344V347C2737.33 347 2740 344.328 2740 341H2737ZM2734 344C2732.33 344 2731 342.672 2731 341H2728C2728 344.328 2730.67 347 2734 347V344ZM2738.5 342.5H2832.5V339.5H2738.5V342.5ZM2851 361V687H2854V361H2851ZM2872.5 708.5H2971V705.5H2872.5V708.5ZM2851 687C2851 698.874 2860.63 708.5 2872.5 708.5V705.5C2862.28 705.5 2854 697.217 2854 687H2851ZM2832.5 342.5C2842.72 342.5 2851 350.783 2851 361H2854C2854 349.126 2844.37 339.5 2832.5 339.5V342.5Z" fill="black"/>
<path d="M295 944.5C292.5 944.5 290.5 946.5 290.5 949C290.5 951.5 292.5 953.5 295 953.5C297.5 953.5 299.5 951.5 299.5 949C299.5 946.5 297.5 944.5 295 944.5Z" fill="white"/>
<path d="M1092.94 1666.06C1093.53 1666.65 1094.47 1666.65 1095.06 1666.06L1104.61 1656.51C1105.19 1655.93 1105.19 1654.98 1104.61 1654.39C1104.02 1653.81 1103.07 1653.81 1102.49 1654.39L1094 1662.88L1085.51 1654.39C1084.93 1653.81 1083.98 1653.81 1083.39 1654.39C1082.81 1654.98 1082.81 1655.93 1083.39 1656.51L1092.94 1666.06ZM292 949C292 947.328 293.328 946 295 946V943C291.672 943 289 945.672 289 949H292ZM295 946C296.672 946 298 947.328 298 949H301C301 945.672 298.328 943 295 943V946ZM298 949C298 950.672 296.672 952 295 952V955C298.328 955 301 952.328 301 949H298ZM295 952C293.328 952 292 950.672 292 949H289C289 952.328 291.672 955 295 955V952ZM299.5 950.5H1074V947.5H299.5V950.5ZM1092.5 969V1665H1095.5V969H1092.5ZM1074 950.5C1084.22 950.5 1092.5 958.783 1092.5 969H1095.5C1095.5 957.126 1085.87 947.5 1074 947.5V950.5Z" fill="black"/>
<path d="M1169 1735.5C1166.5 1735.5 1164.5 1737.5 1164.5 1740C1164.5 1742.5 1166.5 1744.5 1169 1744.5C1171.5 1744.5 1173.5 1742.5 1173.5 1740C1173.5 1737.5 1171.5 1735.5 1169 1735.5Z" fill="white"/>
<path d="M1969.06 1658.06C1969.65 1657.47 1969.65 1656.53 1969.06 1655.94L1959.51 1646.39C1958.93 1645.81 1957.98 1645.81 1957.39 1646.39C1956.81 1646.98 1956.81 1647.93 1957.39 1648.51L1965.88 1657L1957.39 1665.49C1956.81 1666.07 1956.81 1667.02 1957.39 1667.61C1957.98 1668.19 1958.93 1668.19 1959.51 1667.61L1969.06 1658.06ZM1166 1740C1166 1738.33 1167.33 1737 1169 1737V1734C1165.67 1734 1163 1736.67 1163 1740H1166ZM1169 1737C1170.67 1737 1172 1738.33 1172 1740H1175C1175 1736.67 1172.33 1734 1169 1734V1737ZM1172 1740C1172 1741.67 1170.67 1743 1169 1743V1746C1172.33 1746 1175 1743.33 1175 1740H1172ZM1169 1743C1167.33 1743 1166 1741.67 1166 1740H1163C1163 1743.33 1165.67 1746 1169 1746V1743ZM1173.5 1741.5H1548.5V1738.5H1173.5V1741.5ZM1570 1720V1677H1567V1720H1570ZM1588.5 1658.5H1968V1655.5H1588.5V1658.5ZM1570 1677C1570 1666.78 1578.28 1658.5 1588.5 1658.5V1655.5C1576.63 1655.5 1567 1665.13 1567 1677H1570ZM1548.5 1741.5C1560.37 1741.5 1570 1731.87 1570 1720H1567C1567 1730.22 1558.72 1738.5 1548.5 1738.5V1741.5Z" fill="black"/>
<path d="M2118 1652.5C2115.5 1652.5 2113.5 1654.5 2113.5 1657C2113.5 1659.5 2115.5 1661.5 2118 1661.5C2120.5 1661.5 2122.5 1659.5 2122.5 1657C2122.5 1654.5 2120.5 1652.5 2118 1652.5Z" fill="white"/>
<path d="M2115 1657C2115 1655.33 2116.33 1654 2118 1654V1651C2114.67 1651 2112 1653.67 2112 1657H2115ZM2118 1654C2119.67 1654 2121 1655.33 2121 1657H2124C2124 1653.67 2121.33 1651 2118 1651V1654ZM2121 1657C2121 1658.67 2119.67 1660 2118 1660V1663C2121.33 1663 2124 1660.33 2124 1657H2121ZM2118 1660C2116.33 1660 2115 1658.67 2115 1657H2112C2112 1660.33 2114.67 1663 2118 1663V1660ZM2134 1647V734.5H2131V1647H2134ZM2134 734.5C2134 727.32 2139.82 721.5 2147 721.5V718.5C2138.16 718.5 2131 725.663 2131 734.5H2134ZM2122.5 1658.5C2128.85 1658.5 2134 1653.35 2134 1647H2131C2131 1651.69 2127.19 1655.5 2122.5 1655.5V1658.5Z" fill="black"/>
<path d="M1968 1652.5C1965.5 1652.5 1963.5 1654.5 1963.5 1657C1963.5 1659.5 1965.5 1661.5 1968 1661.5C1970.5 1661.5 1972.5 1659.5 1972.5 1657C1972.5 1654.5 1970.5 1652.5 1968 1652.5Z" fill="white"/>
<path d="M1820.94 780.939C1820.35 781.525 1820.35 782.475 1820.94 783.061L1830.49 792.607C1831.07 793.192 1832.02 793.192 1832.61 792.607C1833.19 792.021 1833.19 791.071 1832.61 790.485L1824.12 782L1832.61 773.515C1833.19 772.929 1833.19 771.979 1832.61 771.393C1832.02 770.808 1831.07 770.808 1830.49 771.393L1820.94 780.939ZM1965 1657C1965 1655.33 1966.33 1654 1968 1654V1651C1964.67 1651 1962 1653.67 1962 1657H1965ZM1968 1654C1969.67 1654 1971 1655.33 1971 1657H1974C1974 1653.67 1971.33 1651 1968 1651V1654ZM1971 1657C1971 1658.67 1969.67 1660 1968 1660V1663C1971.33 1663 1974 1660.33 1974 1657H1971ZM1968 1660C1966.33 1660 1965 1658.67 1965 1657H1962C1962 1660.33 1964.67 1663 1968 1663V1660ZM1963.5 1655.5H1915V1658.5H1963.5V1655.5ZM1896.5 1637V802H1893.5V1637H1896.5ZM1875 780.5H1822V783.5H1875V780.5ZM1896.5 802C1896.5 790.126 1886.87 780.5 1875 780.5V783.5C1885.22 783.5 1893.5 791.783 1893.5 802H1896.5ZM1915 1655.5C1904.78 1655.5 1896.5 1647.22 1896.5 1637H1893.5C1893.5 1648.87 1903.13 1658.5 1915 1658.5V1655.5Z" fill="black"/>
<path d="M2118 1652.5C2115.5 1652.5 2113.5 1654.5 2113.5 1657C2113.5 1659.5 2115.5 1661.5 2118 1661.5C2120.5 1661.5 2122.5 1659.5 2122.5 1657C2122.5 1654.5 2120.5 1652.5 2118 1652.5Z" fill="white"/>
<path d="M2735.06 1771.06C2735.65 1770.47 2735.65 1769.53 2735.06 1768.94L2725.51 1759.39C2724.93 1758.81 2723.98 1758.81 2723.39 1759.39C2722.81 1759.98 2722.81 1760.93 2723.39 1761.51L2731.88 1770L2723.39 1778.49C2722.81 1779.07 2722.81 1780.02 2723.39 1780.61C2723.98 1781.19 2724.93 1781.19 2725.51 1780.61L2735.06 1771.06ZM2115 1657C2115 1655.33 2116.33 1654 2118 1654V1651C2114.67 1651 2112 1653.67 2112 1657H2115ZM2118 1654C2119.67 1654 2121 1655.33 2121 1657H2124C2124 1653.67 2121.33 1651 2118 1651V1654ZM2121 1657C2121 1658.67 2119.67 1660 2118 1660V1663C2121.33 1663 2124 1660.33 2124 1657H2121ZM2118 1660C2116.33 1660 2115 1658.67 2115 1657H2112C2112 1660.33 2114.67 1663 2118 1663V1660ZM2122.5 1658.5H2406V1655.5H2122.5V1658.5ZM2424.5 1677V1750H2427.5V1677H2424.5ZM2446 1771.5H2734V1768.5H2446V1771.5ZM2424.5 1750C2424.5 1761.87 2434.13 1771.5 2446 1771.5V1768.5C2435.78 1768.5 2427.5 1760.22 2427.5 1750H2424.5ZM2406 1658.5C2416.22 1658.5 2424.5 1666.78 2424.5 1677H2427.5C2427.5 1665.13 2417.87 1655.5 2406 1655.5V1658.5Z" fill="black"/>
<path d="M295 944.5C292.5 944.5 290.5 946.5 290.5 949C290.5 951.5 292.5 953.5 295 953.5C297.5 953.5 299.5 951.5 299.5 949C299.5 946.5 297.5 944.5 295 944.5Z" fill="white"/>
<path d="M351.061 1508.06C351.646 1507.47 351.646 1506.53 351.061 1505.94L341.515 1496.39C340.929 1495.81 339.979 1495.81 339.393 1496.39C338.808 1496.98 338.808 1497.93 339.393 1498.51L347.879 1507L339.393 1515.49C338.808 1516.07 338.808 1517.02 339.393 1517.61C339.979 1518.19 340.929 1518.19 341.515 1517.61L351.061 1508.06ZM292 949C292 947.328 293.328 946 295 946V943C291.672 943 289 945.672 289 949H292ZM295 946C296.672 946 298 947.328 298 949H301C301 945.672 298.328 943 295 943V946ZM298 949C298 950.672 296.672 952 295 952V955C298.328 955 301 952.328 301 949H298ZM295 952C293.328 952 292 950.672 292 949H289C289 952.328 291.672 955 295 955V952ZM299.5 950.5H302.5V947.5H299.5V950.5ZM321 969V1487H324V969H321ZM342.5 1508.5H350V1505.5H342.5V1508.5ZM321 1487C321 1498.87 330.626 1508.5 342.5 1508.5V1505.5C332.283 1505.5 324 1497.22 324 1487H321ZM302.5 950.5C312.717 950.5 321 958.783 321 969H324C324 957.126 314.374 947.5 302.5 947.5V950.5Z" fill="black"/>
<path d="M500 1502.5C497.5 1502.5 495.5 1504.5 495.5 1507C495.5 1509.5 497.5 1511.5 500 1511.5C502.5 1511.5 504.5 1509.5 504.5 1507C504.5 1504.5 502.5 1502.5 500 1502.5Z" fill="white"/>
<path d="M651.061 1145.06C651.646 1144.47 651.646 1143.53 651.061 1142.94L641.515 1133.39C640.929 1132.81 639.979 1132.81 639.393 1133.39C638.808 1133.98 638.808 1134.93 639.393 1135.51L647.879 1144L639.393 1152.49C638.808 1153.07 638.808 1154.02 639.393 1154.61C639.979 1155.19 640.929 1155.19 641.515 1154.61L651.061 1145.06ZM497 1507C497 1505.33 498.328 1504 500 1504V1501C496.672 1501 494 1503.67 494 1507H497ZM500 1504C501.672 1504 503 1505.33 503 1507H506C506 1503.67 503.328 1501 500 1501V1504ZM503 1507C503 1508.67 501.672 1510 500 1510V1513C503.328 1513 506 1510.33 506 1507H503ZM500 1510C498.328 1510 497 1508.67 497 1507H494C494 1510.33 496.672 1513 500 1513V1510ZM504.5 1508.5H555V1505.5H504.5V1508.5ZM576.5 1487V1164H573.5V1487H576.5ZM595 1145.5H650V1142.5H595V1145.5ZM576.5 1164C576.5 1153.78 584.783 1145.5 595 1145.5V1142.5C583.126 1142.5 573.5 1152.13 573.5 1164H576.5ZM555 1508.5C566.874 1508.5 576.5 1498.87 576.5 1487H573.5C573.5 1497.22 565.217 1505.5 555 1505.5V1508.5Z" fill="black"/>
<path d="M1672 777.5C1669.5 777.5 1667.5 779.5 1667.5 782C1667.5 784.5 1669.5 786.5 1672 786.5C1674.5 786.5 1676.5 784.5 1676.5 782C1676.5 779.5 1674.5 777.5 1672 777.5Z" fill="white"/>
<path d="M798.939 1142.94C798.354 1143.53 798.354 1144.47 798.939 1145.06L808.485 1154.61C809.071 1155.19 810.021 1155.19 810.607 1154.61C811.192 1154.02 811.192 1153.07 810.607 1152.49L802.121 1144L810.607 1135.51C811.192 1134.93 811.192 1133.98 810.607 1133.39C810.021 1132.81 809.071 1132.81 808.485 1133.39L798.939 1142.94ZM1669 782C1669 780.328 1670.33 779 1672 779V776C1668.67 776 1666 778.672 1666 782H1669ZM1672 779C1673.67 779 1675 780.328 1675 782H1678C1678 778.672 1675.33 776 1672 776V779ZM1675 782C1675 783.672 1673.67 785 1672 785V788C1675.33 788 1678 785.328 1678 782H1675ZM1672 785C1670.33 785 1669 783.672 1669 782H1666C1666 785.328 1668.67 788 1672 788V785ZM1667.5 780.5H1256V783.5H1667.5V780.5ZM1234.5 802V1124H1237.5V802H1234.5ZM1216 1142.5H800V1145.5H1216V1142.5ZM1234.5 1124C1234.5 1134.22 1226.22 1142.5 1216 1142.5V1145.5C1227.87 1145.5 1237.5 1135.87 1237.5 1124H1234.5ZM1256 780.5C1244.13 780.5 1234.5 790.126 1234.5 802H1237.5C1237.5 791.783 1245.78 783.5 1256 783.5V780.5Z" fill="black"/>
</svg>
